<mxfile host="Electron" modified="2024-06-21T10:07:52.433Z" agent="Mozilla/5.0 (Windows NT 10.0; Win64; x64) AppleWebKit/537.36 (KHTML, like Gecko) draw.io/24.5.3 Chrome/124.0.6367.207 Electron/30.0.6 Safari/537.36" etag="y-jCQ-ri6-tuZqilfMHm" version="24.5.3" type="device" pages="2">
  <diagram id="C5RBs43oDa-KdzZeNtuy" name="Page-1">
    <mxGraphModel dx="1980" dy="1193" grid="1" gridSize="10" guides="1" tooltips="1" connect="1" arrows="1" fold="1" page="1" pageScale="1" pageWidth="827" pageHeight="1169" math="0" shadow="0">
      <root>
        <mxCell id="WIyWlLk6GJQsqaUBKTNV-0" />
        <mxCell id="WIyWlLk6GJQsqaUBKTNV-1" parent="WIyWlLk6GJQsqaUBKTNV-0" />
        <mxCell id="olG83n2oDNx236_1xUdE-0" value="dimdate" style="shape=table;startSize=30;container=1;collapsible=1;childLayout=tableLayout;fixedRows=1;rowLines=0;fontStyle=1;align=center;resizeLast=1;html=1;" vertex="1" parent="WIyWlLk6GJQsqaUBKTNV-1">
          <mxGeometry y="200" width="180" height="270" as="geometry" />
        </mxCell>
        <mxCell id="olG83n2oDNx236_1xUdE-1" value="" style="shape=tableRow;horizontal=0;startSize=0;swimlaneHead=0;swimlaneBody=0;fillColor=none;collapsible=0;dropTarget=0;points=[[0,0.5],[1,0.5]];portConstraint=eastwest;top=0;left=0;right=0;bottom=1;" vertex="1" parent="olG83n2oDNx236_1xUdE-0">
          <mxGeometry y="30" width="180" height="30" as="geometry" />
        </mxCell>
        <mxCell id="olG83n2oDNx236_1xUdE-2" value="PK" style="shape=partialRectangle;connectable=0;fillColor=none;top=0;left=0;bottom=0;right=0;fontStyle=1;overflow=hidden;whiteSpace=wrap;html=1;" vertex="1" parent="olG83n2oDNx236_1xUdE-1">
          <mxGeometry width="30" height="30" as="geometry">
            <mxRectangle width="30" height="30" as="alternateBounds" />
          </mxGeometry>
        </mxCell>
        <mxCell id="olG83n2oDNx236_1xUdE-3" value="date_key" style="shape=partialRectangle;connectable=0;fillColor=none;top=0;left=0;bottom=0;right=0;align=left;spacingLeft=6;fontStyle=5;overflow=hidden;whiteSpace=wrap;html=1;" vertex="1" parent="olG83n2oDNx236_1xUdE-1">
          <mxGeometry x="30" width="150" height="30" as="geometry">
            <mxRectangle width="150" height="30" as="alternateBounds" />
          </mxGeometry>
        </mxCell>
        <mxCell id="olG83n2oDNx236_1xUdE-4" value="" style="shape=tableRow;horizontal=0;startSize=0;swimlaneHead=0;swimlaneBody=0;fillColor=none;collapsible=0;dropTarget=0;points=[[0,0.5],[1,0.5]];portConstraint=eastwest;top=0;left=0;right=0;bottom=0;" vertex="1" parent="olG83n2oDNx236_1xUdE-0">
          <mxGeometry y="60" width="180" height="30" as="geometry" />
        </mxCell>
        <mxCell id="olG83n2oDNx236_1xUdE-5" value="" style="shape=partialRectangle;connectable=0;fillColor=none;top=0;left=0;bottom=0;right=0;editable=1;overflow=hidden;whiteSpace=wrap;html=1;" vertex="1" parent="olG83n2oDNx236_1xUdE-4">
          <mxGeometry width="30" height="30" as="geometry">
            <mxRectangle width="30" height="30" as="alternateBounds" />
          </mxGeometry>
        </mxCell>
        <mxCell id="olG83n2oDNx236_1xUdE-6" value="date" style="shape=partialRectangle;connectable=0;fillColor=none;top=0;left=0;bottom=0;right=0;align=left;spacingLeft=6;overflow=hidden;whiteSpace=wrap;html=1;" vertex="1" parent="olG83n2oDNx236_1xUdE-4">
          <mxGeometry x="30" width="150" height="30" as="geometry">
            <mxRectangle width="150" height="30" as="alternateBounds" />
          </mxGeometry>
        </mxCell>
        <mxCell id="olG83n2oDNx236_1xUdE-7" value="" style="shape=tableRow;horizontal=0;startSize=0;swimlaneHead=0;swimlaneBody=0;fillColor=none;collapsible=0;dropTarget=0;points=[[0,0.5],[1,0.5]];portConstraint=eastwest;top=0;left=0;right=0;bottom=0;" vertex="1" parent="olG83n2oDNx236_1xUdE-0">
          <mxGeometry y="90" width="180" height="30" as="geometry" />
        </mxCell>
        <mxCell id="olG83n2oDNx236_1xUdE-8" value="" style="shape=partialRectangle;connectable=0;fillColor=none;top=0;left=0;bottom=0;right=0;editable=1;overflow=hidden;whiteSpace=wrap;html=1;" vertex="1" parent="olG83n2oDNx236_1xUdE-7">
          <mxGeometry width="30" height="30" as="geometry">
            <mxRectangle width="30" height="30" as="alternateBounds" />
          </mxGeometry>
        </mxCell>
        <mxCell id="olG83n2oDNx236_1xUdE-9" value="year" style="shape=partialRectangle;connectable=0;fillColor=none;top=0;left=0;bottom=0;right=0;align=left;spacingLeft=6;overflow=hidden;whiteSpace=wrap;html=1;" vertex="1" parent="olG83n2oDNx236_1xUdE-7">
          <mxGeometry x="30" width="150" height="30" as="geometry">
            <mxRectangle width="150" height="30" as="alternateBounds" />
          </mxGeometry>
        </mxCell>
        <mxCell id="olG83n2oDNx236_1xUdE-10" value="" style="shape=tableRow;horizontal=0;startSize=0;swimlaneHead=0;swimlaneBody=0;fillColor=none;collapsible=0;dropTarget=0;points=[[0,0.5],[1,0.5]];portConstraint=eastwest;top=0;left=0;right=0;bottom=0;" vertex="1" parent="olG83n2oDNx236_1xUdE-0">
          <mxGeometry y="120" width="180" height="30" as="geometry" />
        </mxCell>
        <mxCell id="olG83n2oDNx236_1xUdE-11" value="" style="shape=partialRectangle;connectable=0;fillColor=none;top=0;left=0;bottom=0;right=0;editable=1;overflow=hidden;whiteSpace=wrap;html=1;" vertex="1" parent="olG83n2oDNx236_1xUdE-10">
          <mxGeometry width="30" height="30" as="geometry">
            <mxRectangle width="30" height="30" as="alternateBounds" />
          </mxGeometry>
        </mxCell>
        <mxCell id="olG83n2oDNx236_1xUdE-12" value="quater" style="shape=partialRectangle;connectable=0;fillColor=none;top=0;left=0;bottom=0;right=0;align=left;spacingLeft=6;overflow=hidden;whiteSpace=wrap;html=1;" vertex="1" parent="olG83n2oDNx236_1xUdE-10">
          <mxGeometry x="30" width="150" height="30" as="geometry">
            <mxRectangle width="150" height="30" as="alternateBounds" />
          </mxGeometry>
        </mxCell>
        <mxCell id="olG83n2oDNx236_1xUdE-85" value="" style="shape=tableRow;horizontal=0;startSize=0;swimlaneHead=0;swimlaneBody=0;fillColor=none;collapsible=0;dropTarget=0;points=[[0,0.5],[1,0.5]];portConstraint=eastwest;top=0;left=0;right=0;bottom=0;" vertex="1" parent="olG83n2oDNx236_1xUdE-0">
          <mxGeometry y="150" width="180" height="30" as="geometry" />
        </mxCell>
        <mxCell id="olG83n2oDNx236_1xUdE-86" value="" style="shape=partialRectangle;connectable=0;fillColor=none;top=0;left=0;bottom=0;right=0;editable=1;overflow=hidden;" vertex="1" parent="olG83n2oDNx236_1xUdE-85">
          <mxGeometry width="30" height="30" as="geometry">
            <mxRectangle width="30" height="30" as="alternateBounds" />
          </mxGeometry>
        </mxCell>
        <mxCell id="olG83n2oDNx236_1xUdE-87" value="month" style="shape=partialRectangle;connectable=0;fillColor=none;top=0;left=0;bottom=0;right=0;align=left;spacingLeft=6;overflow=hidden;" vertex="1" parent="olG83n2oDNx236_1xUdE-85">
          <mxGeometry x="30" width="150" height="30" as="geometry">
            <mxRectangle width="150" height="30" as="alternateBounds" />
          </mxGeometry>
        </mxCell>
        <mxCell id="olG83n2oDNx236_1xUdE-88" value="" style="shape=tableRow;horizontal=0;startSize=0;swimlaneHead=0;swimlaneBody=0;fillColor=none;collapsible=0;dropTarget=0;points=[[0,0.5],[1,0.5]];portConstraint=eastwest;top=0;left=0;right=0;bottom=0;" vertex="1" parent="olG83n2oDNx236_1xUdE-0">
          <mxGeometry y="180" width="180" height="30" as="geometry" />
        </mxCell>
        <mxCell id="olG83n2oDNx236_1xUdE-89" value="" style="shape=partialRectangle;connectable=0;fillColor=none;top=0;left=0;bottom=0;right=0;editable=1;overflow=hidden;" vertex="1" parent="olG83n2oDNx236_1xUdE-88">
          <mxGeometry width="30" height="30" as="geometry">
            <mxRectangle width="30" height="30" as="alternateBounds" />
          </mxGeometry>
        </mxCell>
        <mxCell id="olG83n2oDNx236_1xUdE-90" value="week" style="shape=partialRectangle;connectable=0;fillColor=none;top=0;left=0;bottom=0;right=0;align=left;spacingLeft=6;overflow=hidden;" vertex="1" parent="olG83n2oDNx236_1xUdE-88">
          <mxGeometry x="30" width="150" height="30" as="geometry">
            <mxRectangle width="150" height="30" as="alternateBounds" />
          </mxGeometry>
        </mxCell>
        <mxCell id="olG83n2oDNx236_1xUdE-91" value="" style="shape=tableRow;horizontal=0;startSize=0;swimlaneHead=0;swimlaneBody=0;fillColor=none;collapsible=0;dropTarget=0;points=[[0,0.5],[1,0.5]];portConstraint=eastwest;top=0;left=0;right=0;bottom=0;" vertex="1" parent="olG83n2oDNx236_1xUdE-0">
          <mxGeometry y="210" width="180" height="30" as="geometry" />
        </mxCell>
        <mxCell id="olG83n2oDNx236_1xUdE-92" value="" style="shape=partialRectangle;connectable=0;fillColor=none;top=0;left=0;bottom=0;right=0;editable=1;overflow=hidden;" vertex="1" parent="olG83n2oDNx236_1xUdE-91">
          <mxGeometry width="30" height="30" as="geometry">
            <mxRectangle width="30" height="30" as="alternateBounds" />
          </mxGeometry>
        </mxCell>
        <mxCell id="olG83n2oDNx236_1xUdE-93" value="day" style="shape=partialRectangle;connectable=0;fillColor=none;top=0;left=0;bottom=0;right=0;align=left;spacingLeft=6;overflow=hidden;" vertex="1" parent="olG83n2oDNx236_1xUdE-91">
          <mxGeometry x="30" width="150" height="30" as="geometry">
            <mxRectangle width="150" height="30" as="alternateBounds" />
          </mxGeometry>
        </mxCell>
        <mxCell id="olG83n2oDNx236_1xUdE-94" value="" style="shape=tableRow;horizontal=0;startSize=0;swimlaneHead=0;swimlaneBody=0;fillColor=none;collapsible=0;dropTarget=0;points=[[0,0.5],[1,0.5]];portConstraint=eastwest;top=0;left=0;right=0;bottom=0;" vertex="1" parent="olG83n2oDNx236_1xUdE-0">
          <mxGeometry y="240" width="180" height="30" as="geometry" />
        </mxCell>
        <mxCell id="olG83n2oDNx236_1xUdE-95" value="" style="shape=partialRectangle;connectable=0;fillColor=none;top=0;left=0;bottom=0;right=0;editable=1;overflow=hidden;" vertex="1" parent="olG83n2oDNx236_1xUdE-94">
          <mxGeometry width="30" height="30" as="geometry">
            <mxRectangle width="30" height="30" as="alternateBounds" />
          </mxGeometry>
        </mxCell>
        <mxCell id="olG83n2oDNx236_1xUdE-96" value="is_weekend" style="shape=partialRectangle;connectable=0;fillColor=none;top=0;left=0;bottom=0;right=0;align=left;spacingLeft=6;overflow=hidden;" vertex="1" parent="olG83n2oDNx236_1xUdE-94">
          <mxGeometry x="30" width="150" height="30" as="geometry">
            <mxRectangle width="150" height="30" as="alternateBounds" />
          </mxGeometry>
        </mxCell>
        <mxCell id="olG83n2oDNx236_1xUdE-13" value="dimcustomer" style="shape=table;startSize=30;container=1;collapsible=1;childLayout=tableLayout;fixedRows=1;rowLines=0;fontStyle=1;align=center;resizeLast=1;html=1;" vertex="1" parent="WIyWlLk6GJQsqaUBKTNV-1">
          <mxGeometry x="680" y="200" width="180" height="480" as="geometry" />
        </mxCell>
        <mxCell id="olG83n2oDNx236_1xUdE-14" value="" style="shape=tableRow;horizontal=0;startSize=0;swimlaneHead=0;swimlaneBody=0;fillColor=none;collapsible=0;dropTarget=0;points=[[0,0.5],[1,0.5]];portConstraint=eastwest;top=0;left=0;right=0;bottom=1;" vertex="1" parent="olG83n2oDNx236_1xUdE-13">
          <mxGeometry y="30" width="180" height="30" as="geometry" />
        </mxCell>
        <mxCell id="olG83n2oDNx236_1xUdE-15" value="PK" style="shape=partialRectangle;connectable=0;fillColor=none;top=0;left=0;bottom=0;right=0;fontStyle=1;overflow=hidden;whiteSpace=wrap;html=1;" vertex="1" parent="olG83n2oDNx236_1xUdE-14">
          <mxGeometry width="30" height="30" as="geometry">
            <mxRectangle width="30" height="30" as="alternateBounds" />
          </mxGeometry>
        </mxCell>
        <mxCell id="olG83n2oDNx236_1xUdE-16" value="customer_key" style="shape=partialRectangle;connectable=0;fillColor=none;top=0;left=0;bottom=0;right=0;align=left;spacingLeft=6;fontStyle=5;overflow=hidden;whiteSpace=wrap;html=1;" vertex="1" parent="olG83n2oDNx236_1xUdE-14">
          <mxGeometry x="30" width="150" height="30" as="geometry">
            <mxRectangle width="150" height="30" as="alternateBounds" />
          </mxGeometry>
        </mxCell>
        <mxCell id="olG83n2oDNx236_1xUdE-17" value="" style="shape=tableRow;horizontal=0;startSize=0;swimlaneHead=0;swimlaneBody=0;fillColor=none;collapsible=0;dropTarget=0;points=[[0,0.5],[1,0.5]];portConstraint=eastwest;top=0;left=0;right=0;bottom=0;" vertex="1" parent="olG83n2oDNx236_1xUdE-13">
          <mxGeometry y="60" width="180" height="30" as="geometry" />
        </mxCell>
        <mxCell id="olG83n2oDNx236_1xUdE-18" value="" style="shape=partialRectangle;connectable=0;fillColor=none;top=0;left=0;bottom=0;right=0;editable=1;overflow=hidden;whiteSpace=wrap;html=1;" vertex="1" parent="olG83n2oDNx236_1xUdE-17">
          <mxGeometry width="30" height="30" as="geometry">
            <mxRectangle width="30" height="30" as="alternateBounds" />
          </mxGeometry>
        </mxCell>
        <mxCell id="olG83n2oDNx236_1xUdE-19" value="customer_id" style="shape=partialRectangle;connectable=0;fillColor=none;top=0;left=0;bottom=0;right=0;align=left;spacingLeft=6;overflow=hidden;whiteSpace=wrap;html=1;" vertex="1" parent="olG83n2oDNx236_1xUdE-17">
          <mxGeometry x="30" width="150" height="30" as="geometry">
            <mxRectangle width="150" height="30" as="alternateBounds" />
          </mxGeometry>
        </mxCell>
        <mxCell id="olG83n2oDNx236_1xUdE-20" value="" style="shape=tableRow;horizontal=0;startSize=0;swimlaneHead=0;swimlaneBody=0;fillColor=none;collapsible=0;dropTarget=0;points=[[0,0.5],[1,0.5]];portConstraint=eastwest;top=0;left=0;right=0;bottom=0;" vertex="1" parent="olG83n2oDNx236_1xUdE-13">
          <mxGeometry y="90" width="180" height="30" as="geometry" />
        </mxCell>
        <mxCell id="olG83n2oDNx236_1xUdE-21" value="" style="shape=partialRectangle;connectable=0;fillColor=none;top=0;left=0;bottom=0;right=0;editable=1;overflow=hidden;whiteSpace=wrap;html=1;" vertex="1" parent="olG83n2oDNx236_1xUdE-20">
          <mxGeometry width="30" height="30" as="geometry">
            <mxRectangle width="30" height="30" as="alternateBounds" />
          </mxGeometry>
        </mxCell>
        <mxCell id="olG83n2oDNx236_1xUdE-22" value="first_name" style="shape=partialRectangle;connectable=0;fillColor=none;top=0;left=0;bottom=0;right=0;align=left;spacingLeft=6;overflow=hidden;whiteSpace=wrap;html=1;" vertex="1" parent="olG83n2oDNx236_1xUdE-20">
          <mxGeometry x="30" width="150" height="30" as="geometry">
            <mxRectangle width="150" height="30" as="alternateBounds" />
          </mxGeometry>
        </mxCell>
        <mxCell id="olG83n2oDNx236_1xUdE-23" value="" style="shape=tableRow;horizontal=0;startSize=0;swimlaneHead=0;swimlaneBody=0;fillColor=none;collapsible=0;dropTarget=0;points=[[0,0.5],[1,0.5]];portConstraint=eastwest;top=0;left=0;right=0;bottom=0;" vertex="1" parent="olG83n2oDNx236_1xUdE-13">
          <mxGeometry y="120" width="180" height="30" as="geometry" />
        </mxCell>
        <mxCell id="olG83n2oDNx236_1xUdE-24" value="" style="shape=partialRectangle;connectable=0;fillColor=none;top=0;left=0;bottom=0;right=0;editable=1;overflow=hidden;whiteSpace=wrap;html=1;" vertex="1" parent="olG83n2oDNx236_1xUdE-23">
          <mxGeometry width="30" height="30" as="geometry">
            <mxRectangle width="30" height="30" as="alternateBounds" />
          </mxGeometry>
        </mxCell>
        <mxCell id="olG83n2oDNx236_1xUdE-25" value="last_name" style="shape=partialRectangle;connectable=0;fillColor=none;top=0;left=0;bottom=0;right=0;align=left;spacingLeft=6;overflow=hidden;whiteSpace=wrap;html=1;" vertex="1" parent="olG83n2oDNx236_1xUdE-23">
          <mxGeometry x="30" width="150" height="30" as="geometry">
            <mxRectangle width="150" height="30" as="alternateBounds" />
          </mxGeometry>
        </mxCell>
        <mxCell id="olG83n2oDNx236_1xUdE-145" value="" style="shape=tableRow;horizontal=0;startSize=0;swimlaneHead=0;swimlaneBody=0;fillColor=none;collapsible=0;dropTarget=0;points=[[0,0.5],[1,0.5]];portConstraint=eastwest;top=0;left=0;right=0;bottom=0;" vertex="1" parent="olG83n2oDNx236_1xUdE-13">
          <mxGeometry y="150" width="180" height="30" as="geometry" />
        </mxCell>
        <mxCell id="olG83n2oDNx236_1xUdE-146" value="" style="shape=partialRectangle;connectable=0;fillColor=none;top=0;left=0;bottom=0;right=0;editable=1;overflow=hidden;" vertex="1" parent="olG83n2oDNx236_1xUdE-145">
          <mxGeometry width="30" height="30" as="geometry">
            <mxRectangle width="30" height="30" as="alternateBounds" />
          </mxGeometry>
        </mxCell>
        <mxCell id="olG83n2oDNx236_1xUdE-147" value="email" style="shape=partialRectangle;connectable=0;fillColor=none;top=0;left=0;bottom=0;right=0;align=left;spacingLeft=6;overflow=hidden;" vertex="1" parent="olG83n2oDNx236_1xUdE-145">
          <mxGeometry x="30" width="150" height="30" as="geometry">
            <mxRectangle width="150" height="30" as="alternateBounds" />
          </mxGeometry>
        </mxCell>
        <mxCell id="olG83n2oDNx236_1xUdE-148" value="" style="shape=tableRow;horizontal=0;startSize=0;swimlaneHead=0;swimlaneBody=0;fillColor=none;collapsible=0;dropTarget=0;points=[[0,0.5],[1,0.5]];portConstraint=eastwest;top=0;left=0;right=0;bottom=0;" vertex="1" parent="olG83n2oDNx236_1xUdE-13">
          <mxGeometry y="180" width="180" height="180" as="geometry" />
        </mxCell>
        <mxCell id="olG83n2oDNx236_1xUdE-149" value="" style="shape=partialRectangle;connectable=0;fillColor=none;top=0;left=0;bottom=0;right=0;editable=1;overflow=hidden;" vertex="1" parent="olG83n2oDNx236_1xUdE-148">
          <mxGeometry width="30" height="180" as="geometry">
            <mxRectangle width="30" height="180" as="alternateBounds" />
          </mxGeometry>
        </mxCell>
        <mxCell id="olG83n2oDNx236_1xUdE-150" value="" style="shape=partialRectangle;connectable=0;fillColor=none;top=0;left=0;bottom=0;right=0;align=left;spacingLeft=6;overflow=hidden;" vertex="1" parent="olG83n2oDNx236_1xUdE-148">
          <mxGeometry x="30" width="150" height="180" as="geometry">
            <mxRectangle width="150" height="180" as="alternateBounds" />
          </mxGeometry>
        </mxCell>
        <mxCell id="olG83n2oDNx236_1xUdE-176" value="" style="shape=tableRow;horizontal=0;startSize=0;swimlaneHead=0;swimlaneBody=0;fillColor=none;collapsible=0;dropTarget=0;points=[[0,0.5],[1,0.5]];portConstraint=eastwest;top=0;left=0;right=0;bottom=0;" vertex="1" parent="olG83n2oDNx236_1xUdE-13">
          <mxGeometry y="360" width="180" height="30" as="geometry" />
        </mxCell>
        <mxCell id="olG83n2oDNx236_1xUdE-177" value="" style="shape=partialRectangle;connectable=0;fillColor=none;top=0;left=0;bottom=0;right=0;editable=1;overflow=hidden;" vertex="1" parent="olG83n2oDNx236_1xUdE-176">
          <mxGeometry width="30" height="30" as="geometry">
            <mxRectangle width="30" height="30" as="alternateBounds" />
          </mxGeometry>
        </mxCell>
        <mxCell id="olG83n2oDNx236_1xUdE-178" value="phone" style="shape=partialRectangle;connectable=0;fillColor=none;top=0;left=0;bottom=0;right=0;align=left;spacingLeft=6;overflow=hidden;" vertex="1" parent="olG83n2oDNx236_1xUdE-176">
          <mxGeometry x="30" width="150" height="30" as="geometry">
            <mxRectangle width="150" height="30" as="alternateBounds" />
          </mxGeometry>
        </mxCell>
        <mxCell id="olG83n2oDNx236_1xUdE-182" value="" style="shape=tableRow;horizontal=0;startSize=0;swimlaneHead=0;swimlaneBody=0;fillColor=none;collapsible=0;dropTarget=0;points=[[0,0.5],[1,0.5]];portConstraint=eastwest;top=0;left=0;right=0;bottom=0;" vertex="1" parent="olG83n2oDNx236_1xUdE-13">
          <mxGeometry y="390" width="180" height="30" as="geometry" />
        </mxCell>
        <mxCell id="olG83n2oDNx236_1xUdE-183" value="" style="shape=partialRectangle;connectable=0;fillColor=none;top=0;left=0;bottom=0;right=0;editable=1;overflow=hidden;" vertex="1" parent="olG83n2oDNx236_1xUdE-182">
          <mxGeometry width="30" height="30" as="geometry">
            <mxRectangle width="30" height="30" as="alternateBounds" />
          </mxGeometry>
        </mxCell>
        <mxCell id="olG83n2oDNx236_1xUdE-184" value="create_date" style="shape=partialRectangle;connectable=0;fillColor=none;top=0;left=0;bottom=0;right=0;align=left;spacingLeft=6;overflow=hidden;" vertex="1" parent="olG83n2oDNx236_1xUdE-182">
          <mxGeometry x="30" width="150" height="30" as="geometry">
            <mxRectangle width="150" height="30" as="alternateBounds" />
          </mxGeometry>
        </mxCell>
        <mxCell id="olG83n2oDNx236_1xUdE-185" value="" style="shape=tableRow;horizontal=0;startSize=0;swimlaneHead=0;swimlaneBody=0;fillColor=none;collapsible=0;dropTarget=0;points=[[0,0.5],[1,0.5]];portConstraint=eastwest;top=0;left=0;right=0;bottom=0;" vertex="1" parent="olG83n2oDNx236_1xUdE-13">
          <mxGeometry y="420" width="180" height="60" as="geometry" />
        </mxCell>
        <mxCell id="olG83n2oDNx236_1xUdE-186" value="" style="shape=partialRectangle;connectable=0;fillColor=none;top=0;left=0;bottom=0;right=0;editable=1;overflow=hidden;" vertex="1" parent="olG83n2oDNx236_1xUdE-185">
          <mxGeometry width="30" height="60" as="geometry">
            <mxRectangle width="30" height="60" as="alternateBounds" />
          </mxGeometry>
        </mxCell>
        <mxCell id="olG83n2oDNx236_1xUdE-187" value="" style="shape=partialRectangle;connectable=0;fillColor=none;top=0;left=0;bottom=0;right=0;align=left;spacingLeft=6;overflow=hidden;" vertex="1" parent="olG83n2oDNx236_1xUdE-185">
          <mxGeometry x="30" width="150" height="60" as="geometry">
            <mxRectangle width="150" height="60" as="alternateBounds" />
          </mxGeometry>
        </mxCell>
        <mxCell id="olG83n2oDNx236_1xUdE-26" value="dimstore" style="shape=table;startSize=30;container=1;collapsible=1;childLayout=tableLayout;fixedRows=1;rowLines=0;fontStyle=1;align=center;resizeLast=1;html=1;" vertex="1" parent="WIyWlLk6GJQsqaUBKTNV-1">
          <mxGeometry x="680" y="760" width="180" height="390" as="geometry" />
        </mxCell>
        <mxCell id="olG83n2oDNx236_1xUdE-27" value="" style="shape=tableRow;horizontal=0;startSize=0;swimlaneHead=0;swimlaneBody=0;fillColor=none;collapsible=0;dropTarget=0;points=[[0,0.5],[1,0.5]];portConstraint=eastwest;top=0;left=0;right=0;bottom=1;" vertex="1" parent="olG83n2oDNx236_1xUdE-26">
          <mxGeometry y="30" width="180" height="30" as="geometry" />
        </mxCell>
        <mxCell id="olG83n2oDNx236_1xUdE-28" value="PK" style="shape=partialRectangle;connectable=0;fillColor=none;top=0;left=0;bottom=0;right=0;fontStyle=1;overflow=hidden;whiteSpace=wrap;html=1;" vertex="1" parent="olG83n2oDNx236_1xUdE-27">
          <mxGeometry width="30" height="30" as="geometry">
            <mxRectangle width="30" height="30" as="alternateBounds" />
          </mxGeometry>
        </mxCell>
        <mxCell id="olG83n2oDNx236_1xUdE-29" value="store_key" style="shape=partialRectangle;connectable=0;fillColor=none;top=0;left=0;bottom=0;right=0;align=left;spacingLeft=6;fontStyle=5;overflow=hidden;whiteSpace=wrap;html=1;" vertex="1" parent="olG83n2oDNx236_1xUdE-27">
          <mxGeometry x="30" width="150" height="30" as="geometry">
            <mxRectangle width="150" height="30" as="alternateBounds" />
          </mxGeometry>
        </mxCell>
        <mxCell id="olG83n2oDNx236_1xUdE-30" value="" style="shape=tableRow;horizontal=0;startSize=0;swimlaneHead=0;swimlaneBody=0;fillColor=none;collapsible=0;dropTarget=0;points=[[0,0.5],[1,0.5]];portConstraint=eastwest;top=0;left=0;right=0;bottom=0;" vertex="1" parent="olG83n2oDNx236_1xUdE-26">
          <mxGeometry y="60" width="180" height="30" as="geometry" />
        </mxCell>
        <mxCell id="olG83n2oDNx236_1xUdE-31" value="" style="shape=partialRectangle;connectable=0;fillColor=none;top=0;left=0;bottom=0;right=0;editable=1;overflow=hidden;whiteSpace=wrap;html=1;" vertex="1" parent="olG83n2oDNx236_1xUdE-30">
          <mxGeometry width="30" height="30" as="geometry">
            <mxRectangle width="30" height="30" as="alternateBounds" />
          </mxGeometry>
        </mxCell>
        <mxCell id="olG83n2oDNx236_1xUdE-32" value="store_id" style="shape=partialRectangle;connectable=0;fillColor=none;top=0;left=0;bottom=0;right=0;align=left;spacingLeft=6;overflow=hidden;whiteSpace=wrap;html=1;" vertex="1" parent="olG83n2oDNx236_1xUdE-30">
          <mxGeometry x="30" width="150" height="30" as="geometry">
            <mxRectangle width="150" height="30" as="alternateBounds" />
          </mxGeometry>
        </mxCell>
        <mxCell id="olG83n2oDNx236_1xUdE-33" value="" style="shape=tableRow;horizontal=0;startSize=0;swimlaneHead=0;swimlaneBody=0;fillColor=none;collapsible=0;dropTarget=0;points=[[0,0.5],[1,0.5]];portConstraint=eastwest;top=0;left=0;right=0;bottom=0;" vertex="1" parent="olG83n2oDNx236_1xUdE-26">
          <mxGeometry y="90" width="180" height="30" as="geometry" />
        </mxCell>
        <mxCell id="olG83n2oDNx236_1xUdE-34" value="" style="shape=partialRectangle;connectable=0;fillColor=none;top=0;left=0;bottom=0;right=0;editable=1;overflow=hidden;whiteSpace=wrap;html=1;" vertex="1" parent="olG83n2oDNx236_1xUdE-33">
          <mxGeometry width="30" height="30" as="geometry">
            <mxRectangle width="30" height="30" as="alternateBounds" />
          </mxGeometry>
        </mxCell>
        <mxCell id="olG83n2oDNx236_1xUdE-35" value="address" style="shape=partialRectangle;connectable=0;fillColor=none;top=0;left=0;bottom=0;right=0;align=left;spacingLeft=6;overflow=hidden;whiteSpace=wrap;html=1;" vertex="1" parent="olG83n2oDNx236_1xUdE-33">
          <mxGeometry x="30" width="150" height="30" as="geometry">
            <mxRectangle width="150" height="30" as="alternateBounds" />
          </mxGeometry>
        </mxCell>
        <mxCell id="olG83n2oDNx236_1xUdE-36" value="" style="shape=tableRow;horizontal=0;startSize=0;swimlaneHead=0;swimlaneBody=0;fillColor=none;collapsible=0;dropTarget=0;points=[[0,0.5],[1,0.5]];portConstraint=eastwest;top=0;left=0;right=0;bottom=0;" vertex="1" parent="olG83n2oDNx236_1xUdE-26">
          <mxGeometry y="120" width="180" height="30" as="geometry" />
        </mxCell>
        <mxCell id="olG83n2oDNx236_1xUdE-37" value="" style="shape=partialRectangle;connectable=0;fillColor=none;top=0;left=0;bottom=0;right=0;editable=1;overflow=hidden;whiteSpace=wrap;html=1;" vertex="1" parent="olG83n2oDNx236_1xUdE-36">
          <mxGeometry width="30" height="30" as="geometry">
            <mxRectangle width="30" height="30" as="alternateBounds" />
          </mxGeometry>
        </mxCell>
        <mxCell id="olG83n2oDNx236_1xUdE-38" value="address2" style="shape=partialRectangle;connectable=0;fillColor=none;top=0;left=0;bottom=0;right=0;align=left;spacingLeft=6;overflow=hidden;whiteSpace=wrap;html=1;" vertex="1" parent="olG83n2oDNx236_1xUdE-36">
          <mxGeometry x="30" width="150" height="30" as="geometry">
            <mxRectangle width="150" height="30" as="alternateBounds" />
          </mxGeometry>
        </mxCell>
        <mxCell id="olG83n2oDNx236_1xUdE-118" value="" style="shape=tableRow;horizontal=0;startSize=0;swimlaneHead=0;swimlaneBody=0;fillColor=none;collapsible=0;dropTarget=0;points=[[0,0.5],[1,0.5]];portConstraint=eastwest;top=0;left=0;right=0;bottom=0;" vertex="1" parent="olG83n2oDNx236_1xUdE-26">
          <mxGeometry y="150" width="180" height="30" as="geometry" />
        </mxCell>
        <mxCell id="olG83n2oDNx236_1xUdE-119" value="" style="shape=partialRectangle;connectable=0;fillColor=none;top=0;left=0;bottom=0;right=0;editable=1;overflow=hidden;" vertex="1" parent="olG83n2oDNx236_1xUdE-118">
          <mxGeometry width="30" height="30" as="geometry">
            <mxRectangle width="30" height="30" as="alternateBounds" />
          </mxGeometry>
        </mxCell>
        <mxCell id="olG83n2oDNx236_1xUdE-120" value="district" style="shape=partialRectangle;connectable=0;fillColor=none;top=0;left=0;bottom=0;right=0;align=left;spacingLeft=6;overflow=hidden;" vertex="1" parent="olG83n2oDNx236_1xUdE-118">
          <mxGeometry x="30" width="150" height="30" as="geometry">
            <mxRectangle width="150" height="30" as="alternateBounds" />
          </mxGeometry>
        </mxCell>
        <mxCell id="olG83n2oDNx236_1xUdE-124" value="" style="shape=tableRow;horizontal=0;startSize=0;swimlaneHead=0;swimlaneBody=0;fillColor=none;collapsible=0;dropTarget=0;points=[[0,0.5],[1,0.5]];portConstraint=eastwest;top=0;left=0;right=0;bottom=0;" vertex="1" parent="olG83n2oDNx236_1xUdE-26">
          <mxGeometry y="180" width="180" height="30" as="geometry" />
        </mxCell>
        <mxCell id="olG83n2oDNx236_1xUdE-125" value="" style="shape=partialRectangle;connectable=0;fillColor=none;top=0;left=0;bottom=0;right=0;editable=1;overflow=hidden;" vertex="1" parent="olG83n2oDNx236_1xUdE-124">
          <mxGeometry width="30" height="30" as="geometry">
            <mxRectangle width="30" height="30" as="alternateBounds" />
          </mxGeometry>
        </mxCell>
        <mxCell id="olG83n2oDNx236_1xUdE-126" value="city" style="shape=partialRectangle;connectable=0;fillColor=none;top=0;left=0;bottom=0;right=0;align=left;spacingLeft=6;overflow=hidden;" vertex="1" parent="olG83n2oDNx236_1xUdE-124">
          <mxGeometry x="30" width="150" height="30" as="geometry">
            <mxRectangle width="150" height="30" as="alternateBounds" />
          </mxGeometry>
        </mxCell>
        <mxCell id="olG83n2oDNx236_1xUdE-127" value="" style="shape=tableRow;horizontal=0;startSize=0;swimlaneHead=0;swimlaneBody=0;fillColor=none;collapsible=0;dropTarget=0;points=[[0,0.5],[1,0.5]];portConstraint=eastwest;top=0;left=0;right=0;bottom=0;" vertex="1" parent="olG83n2oDNx236_1xUdE-26">
          <mxGeometry y="210" width="180" height="30" as="geometry" />
        </mxCell>
        <mxCell id="olG83n2oDNx236_1xUdE-128" value="" style="shape=partialRectangle;connectable=0;fillColor=none;top=0;left=0;bottom=0;right=0;editable=1;overflow=hidden;" vertex="1" parent="olG83n2oDNx236_1xUdE-127">
          <mxGeometry width="30" height="30" as="geometry">
            <mxRectangle width="30" height="30" as="alternateBounds" />
          </mxGeometry>
        </mxCell>
        <mxCell id="olG83n2oDNx236_1xUdE-129" value="country" style="shape=partialRectangle;connectable=0;fillColor=none;top=0;left=0;bottom=0;right=0;align=left;spacingLeft=6;overflow=hidden;" vertex="1" parent="olG83n2oDNx236_1xUdE-127">
          <mxGeometry x="30" width="150" height="30" as="geometry">
            <mxRectangle width="150" height="30" as="alternateBounds" />
          </mxGeometry>
        </mxCell>
        <mxCell id="olG83n2oDNx236_1xUdE-121" value="" style="shape=tableRow;horizontal=0;startSize=0;swimlaneHead=0;swimlaneBody=0;fillColor=none;collapsible=0;dropTarget=0;points=[[0,0.5],[1,0.5]];portConstraint=eastwest;top=0;left=0;right=0;bottom=0;" vertex="1" parent="olG83n2oDNx236_1xUdE-26">
          <mxGeometry y="240" width="180" height="30" as="geometry" />
        </mxCell>
        <mxCell id="olG83n2oDNx236_1xUdE-122" value="" style="shape=partialRectangle;connectable=0;fillColor=none;top=0;left=0;bottom=0;right=0;editable=1;overflow=hidden;" vertex="1" parent="olG83n2oDNx236_1xUdE-121">
          <mxGeometry width="30" height="30" as="geometry">
            <mxRectangle width="30" height="30" as="alternateBounds" />
          </mxGeometry>
        </mxCell>
        <mxCell id="olG83n2oDNx236_1xUdE-123" value="postal_code" style="shape=partialRectangle;connectable=0;fillColor=none;top=0;left=0;bottom=0;right=0;align=left;spacingLeft=6;overflow=hidden;" vertex="1" parent="olG83n2oDNx236_1xUdE-121">
          <mxGeometry x="30" width="150" height="30" as="geometry">
            <mxRectangle width="150" height="30" as="alternateBounds" />
          </mxGeometry>
        </mxCell>
        <mxCell id="olG83n2oDNx236_1xUdE-133" value="" style="shape=tableRow;horizontal=0;startSize=0;swimlaneHead=0;swimlaneBody=0;fillColor=none;collapsible=0;dropTarget=0;points=[[0,0.5],[1,0.5]];portConstraint=eastwest;top=0;left=0;right=0;bottom=0;" vertex="1" parent="olG83n2oDNx236_1xUdE-26">
          <mxGeometry y="270" width="180" height="30" as="geometry" />
        </mxCell>
        <mxCell id="olG83n2oDNx236_1xUdE-134" value="" style="shape=partialRectangle;connectable=0;fillColor=none;top=0;left=0;bottom=0;right=0;editable=1;overflow=hidden;" vertex="1" parent="olG83n2oDNx236_1xUdE-133">
          <mxGeometry width="30" height="30" as="geometry">
            <mxRectangle width="30" height="30" as="alternateBounds" />
          </mxGeometry>
        </mxCell>
        <mxCell id="olG83n2oDNx236_1xUdE-135" value="manager_first_name" style="shape=partialRectangle;connectable=0;fillColor=none;top=0;left=0;bottom=0;right=0;align=left;spacingLeft=6;overflow=hidden;" vertex="1" parent="olG83n2oDNx236_1xUdE-133">
          <mxGeometry x="30" width="150" height="30" as="geometry">
            <mxRectangle width="150" height="30" as="alternateBounds" />
          </mxGeometry>
        </mxCell>
        <mxCell id="olG83n2oDNx236_1xUdE-136" value="" style="shape=tableRow;horizontal=0;startSize=0;swimlaneHead=0;swimlaneBody=0;fillColor=none;collapsible=0;dropTarget=0;points=[[0,0.5],[1,0.5]];portConstraint=eastwest;top=0;left=0;right=0;bottom=0;" vertex="1" parent="olG83n2oDNx236_1xUdE-26">
          <mxGeometry y="300" width="180" height="30" as="geometry" />
        </mxCell>
        <mxCell id="olG83n2oDNx236_1xUdE-137" value="" style="shape=partialRectangle;connectable=0;fillColor=none;top=0;left=0;bottom=0;right=0;editable=1;overflow=hidden;" vertex="1" parent="olG83n2oDNx236_1xUdE-136">
          <mxGeometry width="30" height="30" as="geometry">
            <mxRectangle width="30" height="30" as="alternateBounds" />
          </mxGeometry>
        </mxCell>
        <mxCell id="olG83n2oDNx236_1xUdE-138" value="manager_last_name" style="shape=partialRectangle;connectable=0;fillColor=none;top=0;left=0;bottom=0;right=0;align=left;spacingLeft=6;overflow=hidden;" vertex="1" parent="olG83n2oDNx236_1xUdE-136">
          <mxGeometry x="30" width="150" height="30" as="geometry">
            <mxRectangle width="150" height="30" as="alternateBounds" />
          </mxGeometry>
        </mxCell>
        <mxCell id="olG83n2oDNx236_1xUdE-142" value="" style="shape=tableRow;horizontal=0;startSize=0;swimlaneHead=0;swimlaneBody=0;fillColor=none;collapsible=0;dropTarget=0;points=[[0,0.5],[1,0.5]];portConstraint=eastwest;top=0;left=0;right=0;bottom=0;" vertex="1" parent="olG83n2oDNx236_1xUdE-26">
          <mxGeometry y="330" width="180" height="30" as="geometry" />
        </mxCell>
        <mxCell id="olG83n2oDNx236_1xUdE-143" value="" style="shape=partialRectangle;connectable=0;fillColor=none;top=0;left=0;bottom=0;right=0;editable=1;overflow=hidden;" vertex="1" parent="olG83n2oDNx236_1xUdE-142">
          <mxGeometry width="30" height="30" as="geometry">
            <mxRectangle width="30" height="30" as="alternateBounds" />
          </mxGeometry>
        </mxCell>
        <mxCell id="olG83n2oDNx236_1xUdE-144" value="start_date" style="shape=partialRectangle;connectable=0;fillColor=none;top=0;left=0;bottom=0;right=0;align=left;spacingLeft=6;overflow=hidden;" vertex="1" parent="olG83n2oDNx236_1xUdE-142">
          <mxGeometry x="30" width="150" height="30" as="geometry">
            <mxRectangle width="150" height="30" as="alternateBounds" />
          </mxGeometry>
        </mxCell>
        <mxCell id="olG83n2oDNx236_1xUdE-139" value="" style="shape=tableRow;horizontal=0;startSize=0;swimlaneHead=0;swimlaneBody=0;fillColor=none;collapsible=0;dropTarget=0;points=[[0,0.5],[1,0.5]];portConstraint=eastwest;top=0;left=0;right=0;bottom=0;" vertex="1" parent="olG83n2oDNx236_1xUdE-26">
          <mxGeometry y="360" width="180" height="30" as="geometry" />
        </mxCell>
        <mxCell id="olG83n2oDNx236_1xUdE-140" value="" style="shape=partialRectangle;connectable=0;fillColor=none;top=0;left=0;bottom=0;right=0;editable=1;overflow=hidden;" vertex="1" parent="olG83n2oDNx236_1xUdE-139">
          <mxGeometry width="30" height="30" as="geometry">
            <mxRectangle width="30" height="30" as="alternateBounds" />
          </mxGeometry>
        </mxCell>
        <mxCell id="olG83n2oDNx236_1xUdE-141" value="end_date" style="shape=partialRectangle;connectable=0;fillColor=none;top=0;left=0;bottom=0;right=0;align=left;spacingLeft=6;overflow=hidden;" vertex="1" parent="olG83n2oDNx236_1xUdE-139">
          <mxGeometry x="30" width="150" height="30" as="geometry">
            <mxRectangle width="150" height="30" as="alternateBounds" />
          </mxGeometry>
        </mxCell>
        <mxCell id="olG83n2oDNx236_1xUdE-39" value="dimmovie" style="shape=table;startSize=30;container=1;collapsible=1;childLayout=tableLayout;fixedRows=1;rowLines=0;fontStyle=1;align=center;resizeLast=1;html=1;" vertex="1" parent="WIyWlLk6GJQsqaUBKTNV-1">
          <mxGeometry x="10" y="760" width="180" height="330" as="geometry" />
        </mxCell>
        <mxCell id="olG83n2oDNx236_1xUdE-40" value="" style="shape=tableRow;horizontal=0;startSize=0;swimlaneHead=0;swimlaneBody=0;fillColor=none;collapsible=0;dropTarget=0;points=[[0,0.5],[1,0.5]];portConstraint=eastwest;top=0;left=0;right=0;bottom=1;" vertex="1" parent="olG83n2oDNx236_1xUdE-39">
          <mxGeometry y="30" width="180" height="30" as="geometry" />
        </mxCell>
        <mxCell id="olG83n2oDNx236_1xUdE-41" value="PK" style="shape=partialRectangle;connectable=0;fillColor=none;top=0;left=0;bottom=0;right=0;fontStyle=1;overflow=hidden;whiteSpace=wrap;html=1;" vertex="1" parent="olG83n2oDNx236_1xUdE-40">
          <mxGeometry width="30" height="30" as="geometry">
            <mxRectangle width="30" height="30" as="alternateBounds" />
          </mxGeometry>
        </mxCell>
        <mxCell id="olG83n2oDNx236_1xUdE-42" value="movie_key" style="shape=partialRectangle;connectable=0;fillColor=none;top=0;left=0;bottom=0;right=0;align=left;spacingLeft=6;fontStyle=5;overflow=hidden;whiteSpace=wrap;html=1;" vertex="1" parent="olG83n2oDNx236_1xUdE-40">
          <mxGeometry x="30" width="150" height="30" as="geometry">
            <mxRectangle width="150" height="30" as="alternateBounds" />
          </mxGeometry>
        </mxCell>
        <mxCell id="olG83n2oDNx236_1xUdE-43" value="" style="shape=tableRow;horizontal=0;startSize=0;swimlaneHead=0;swimlaneBody=0;fillColor=none;collapsible=0;dropTarget=0;points=[[0,0.5],[1,0.5]];portConstraint=eastwest;top=0;left=0;right=0;bottom=0;" vertex="1" parent="olG83n2oDNx236_1xUdE-39">
          <mxGeometry y="60" width="180" height="30" as="geometry" />
        </mxCell>
        <mxCell id="olG83n2oDNx236_1xUdE-44" value="" style="shape=partialRectangle;connectable=0;fillColor=none;top=0;left=0;bottom=0;right=0;editable=1;overflow=hidden;whiteSpace=wrap;html=1;" vertex="1" parent="olG83n2oDNx236_1xUdE-43">
          <mxGeometry width="30" height="30" as="geometry">
            <mxRectangle width="30" height="30" as="alternateBounds" />
          </mxGeometry>
        </mxCell>
        <mxCell id="olG83n2oDNx236_1xUdE-45" value="film_id" style="shape=partialRectangle;connectable=0;fillColor=none;top=0;left=0;bottom=0;right=0;align=left;spacingLeft=6;overflow=hidden;whiteSpace=wrap;html=1;" vertex="1" parent="olG83n2oDNx236_1xUdE-43">
          <mxGeometry x="30" width="150" height="30" as="geometry">
            <mxRectangle width="150" height="30" as="alternateBounds" />
          </mxGeometry>
        </mxCell>
        <mxCell id="olG83n2oDNx236_1xUdE-46" value="" style="shape=tableRow;horizontal=0;startSize=0;swimlaneHead=0;swimlaneBody=0;fillColor=none;collapsible=0;dropTarget=0;points=[[0,0.5],[1,0.5]];portConstraint=eastwest;top=0;left=0;right=0;bottom=0;" vertex="1" parent="olG83n2oDNx236_1xUdE-39">
          <mxGeometry y="90" width="180" height="30" as="geometry" />
        </mxCell>
        <mxCell id="olG83n2oDNx236_1xUdE-47" value="" style="shape=partialRectangle;connectable=0;fillColor=none;top=0;left=0;bottom=0;right=0;editable=1;overflow=hidden;whiteSpace=wrap;html=1;" vertex="1" parent="olG83n2oDNx236_1xUdE-46">
          <mxGeometry width="30" height="30" as="geometry">
            <mxRectangle width="30" height="30" as="alternateBounds" />
          </mxGeometry>
        </mxCell>
        <mxCell id="olG83n2oDNx236_1xUdE-48" value="title" style="shape=partialRectangle;connectable=0;fillColor=none;top=0;left=0;bottom=0;right=0;align=left;spacingLeft=6;overflow=hidden;whiteSpace=wrap;html=1;" vertex="1" parent="olG83n2oDNx236_1xUdE-46">
          <mxGeometry x="30" width="150" height="30" as="geometry">
            <mxRectangle width="150" height="30" as="alternateBounds" />
          </mxGeometry>
        </mxCell>
        <mxCell id="olG83n2oDNx236_1xUdE-49" value="" style="shape=tableRow;horizontal=0;startSize=0;swimlaneHead=0;swimlaneBody=0;fillColor=none;collapsible=0;dropTarget=0;points=[[0,0.5],[1,0.5]];portConstraint=eastwest;top=0;left=0;right=0;bottom=0;" vertex="1" parent="olG83n2oDNx236_1xUdE-39">
          <mxGeometry y="120" width="180" height="30" as="geometry" />
        </mxCell>
        <mxCell id="olG83n2oDNx236_1xUdE-50" value="" style="shape=partialRectangle;connectable=0;fillColor=none;top=0;left=0;bottom=0;right=0;editable=1;overflow=hidden;whiteSpace=wrap;html=1;" vertex="1" parent="olG83n2oDNx236_1xUdE-49">
          <mxGeometry width="30" height="30" as="geometry">
            <mxRectangle width="30" height="30" as="alternateBounds" />
          </mxGeometry>
        </mxCell>
        <mxCell id="olG83n2oDNx236_1xUdE-51" value="description" style="shape=partialRectangle;connectable=0;fillColor=none;top=0;left=0;bottom=0;right=0;align=left;spacingLeft=6;overflow=hidden;whiteSpace=wrap;html=1;" vertex="1" parent="olG83n2oDNx236_1xUdE-49">
          <mxGeometry x="30" width="150" height="30" as="geometry">
            <mxRectangle width="150" height="30" as="alternateBounds" />
          </mxGeometry>
        </mxCell>
        <mxCell id="olG83n2oDNx236_1xUdE-97" value="" style="shape=tableRow;horizontal=0;startSize=0;swimlaneHead=0;swimlaneBody=0;fillColor=none;collapsible=0;dropTarget=0;points=[[0,0.5],[1,0.5]];portConstraint=eastwest;top=0;left=0;right=0;bottom=0;" vertex="1" parent="olG83n2oDNx236_1xUdE-39">
          <mxGeometry y="150" width="180" height="30" as="geometry" />
        </mxCell>
        <mxCell id="olG83n2oDNx236_1xUdE-98" value="" style="shape=partialRectangle;connectable=0;fillColor=none;top=0;left=0;bottom=0;right=0;editable=1;overflow=hidden;" vertex="1" parent="olG83n2oDNx236_1xUdE-97">
          <mxGeometry width="30" height="30" as="geometry">
            <mxRectangle width="30" height="30" as="alternateBounds" />
          </mxGeometry>
        </mxCell>
        <mxCell id="olG83n2oDNx236_1xUdE-99" value="release_year" style="shape=partialRectangle;connectable=0;fillColor=none;top=0;left=0;bottom=0;right=0;align=left;spacingLeft=6;overflow=hidden;" vertex="1" parent="olG83n2oDNx236_1xUdE-97">
          <mxGeometry x="30" width="150" height="30" as="geometry">
            <mxRectangle width="150" height="30" as="alternateBounds" />
          </mxGeometry>
        </mxCell>
        <mxCell id="olG83n2oDNx236_1xUdE-100" value="" style="shape=tableRow;horizontal=0;startSize=0;swimlaneHead=0;swimlaneBody=0;fillColor=none;collapsible=0;dropTarget=0;points=[[0,0.5],[1,0.5]];portConstraint=eastwest;top=0;left=0;right=0;bottom=0;" vertex="1" parent="olG83n2oDNx236_1xUdE-39">
          <mxGeometry y="180" width="180" height="30" as="geometry" />
        </mxCell>
        <mxCell id="olG83n2oDNx236_1xUdE-101" value="" style="shape=partialRectangle;connectable=0;fillColor=none;top=0;left=0;bottom=0;right=0;editable=1;overflow=hidden;" vertex="1" parent="olG83n2oDNx236_1xUdE-100">
          <mxGeometry width="30" height="30" as="geometry">
            <mxRectangle width="30" height="30" as="alternateBounds" />
          </mxGeometry>
        </mxCell>
        <mxCell id="olG83n2oDNx236_1xUdE-102" value="language" style="shape=partialRectangle;connectable=0;fillColor=none;top=0;left=0;bottom=0;right=0;align=left;spacingLeft=6;overflow=hidden;" vertex="1" parent="olG83n2oDNx236_1xUdE-100">
          <mxGeometry x="30" width="150" height="30" as="geometry">
            <mxRectangle width="150" height="30" as="alternateBounds" />
          </mxGeometry>
        </mxCell>
        <mxCell id="olG83n2oDNx236_1xUdE-103" value="" style="shape=tableRow;horizontal=0;startSize=0;swimlaneHead=0;swimlaneBody=0;fillColor=none;collapsible=0;dropTarget=0;points=[[0,0.5],[1,0.5]];portConstraint=eastwest;top=0;left=0;right=0;bottom=0;" vertex="1" parent="olG83n2oDNx236_1xUdE-39">
          <mxGeometry y="210" width="180" height="30" as="geometry" />
        </mxCell>
        <mxCell id="olG83n2oDNx236_1xUdE-104" value="" style="shape=partialRectangle;connectable=0;fillColor=none;top=0;left=0;bottom=0;right=0;editable=1;overflow=hidden;" vertex="1" parent="olG83n2oDNx236_1xUdE-103">
          <mxGeometry width="30" height="30" as="geometry">
            <mxRectangle width="30" height="30" as="alternateBounds" />
          </mxGeometry>
        </mxCell>
        <mxCell id="olG83n2oDNx236_1xUdE-105" value="original_language" style="shape=partialRectangle;connectable=0;fillColor=none;top=0;left=0;bottom=0;right=0;align=left;spacingLeft=6;overflow=hidden;" vertex="1" parent="olG83n2oDNx236_1xUdE-103">
          <mxGeometry x="30" width="150" height="30" as="geometry">
            <mxRectangle width="150" height="30" as="alternateBounds" />
          </mxGeometry>
        </mxCell>
        <mxCell id="olG83n2oDNx236_1xUdE-106" value="" style="shape=tableRow;horizontal=0;startSize=0;swimlaneHead=0;swimlaneBody=0;fillColor=none;collapsible=0;dropTarget=0;points=[[0,0.5],[1,0.5]];portConstraint=eastwest;top=0;left=0;right=0;bottom=0;" vertex="1" parent="olG83n2oDNx236_1xUdE-39">
          <mxGeometry y="240" width="180" height="30" as="geometry" />
        </mxCell>
        <mxCell id="olG83n2oDNx236_1xUdE-107" value="" style="shape=partialRectangle;connectable=0;fillColor=none;top=0;left=0;bottom=0;right=0;editable=1;overflow=hidden;" vertex="1" parent="olG83n2oDNx236_1xUdE-106">
          <mxGeometry width="30" height="30" as="geometry">
            <mxRectangle width="30" height="30" as="alternateBounds" />
          </mxGeometry>
        </mxCell>
        <mxCell id="olG83n2oDNx236_1xUdE-108" value="length" style="shape=partialRectangle;connectable=0;fillColor=none;top=0;left=0;bottom=0;right=0;align=left;spacingLeft=6;overflow=hidden;" vertex="1" parent="olG83n2oDNx236_1xUdE-106">
          <mxGeometry x="30" width="150" height="30" as="geometry">
            <mxRectangle width="150" height="30" as="alternateBounds" />
          </mxGeometry>
        </mxCell>
        <mxCell id="olG83n2oDNx236_1xUdE-109" value="" style="shape=tableRow;horizontal=0;startSize=0;swimlaneHead=0;swimlaneBody=0;fillColor=none;collapsible=0;dropTarget=0;points=[[0,0.5],[1,0.5]];portConstraint=eastwest;top=0;left=0;right=0;bottom=0;" vertex="1" parent="olG83n2oDNx236_1xUdE-39">
          <mxGeometry y="270" width="180" height="30" as="geometry" />
        </mxCell>
        <mxCell id="olG83n2oDNx236_1xUdE-110" value="" style="shape=partialRectangle;connectable=0;fillColor=none;top=0;left=0;bottom=0;right=0;editable=1;overflow=hidden;" vertex="1" parent="olG83n2oDNx236_1xUdE-109">
          <mxGeometry width="30" height="30" as="geometry">
            <mxRectangle width="30" height="30" as="alternateBounds" />
          </mxGeometry>
        </mxCell>
        <mxCell id="olG83n2oDNx236_1xUdE-111" value="ratings" style="shape=partialRectangle;connectable=0;fillColor=none;top=0;left=0;bottom=0;right=0;align=left;spacingLeft=6;overflow=hidden;" vertex="1" parent="olG83n2oDNx236_1xUdE-109">
          <mxGeometry x="30" width="150" height="30" as="geometry">
            <mxRectangle width="150" height="30" as="alternateBounds" />
          </mxGeometry>
        </mxCell>
        <mxCell id="olG83n2oDNx236_1xUdE-115" value="" style="shape=tableRow;horizontal=0;startSize=0;swimlaneHead=0;swimlaneBody=0;fillColor=none;collapsible=0;dropTarget=0;points=[[0,0.5],[1,0.5]];portConstraint=eastwest;top=0;left=0;right=0;bottom=0;" vertex="1" parent="olG83n2oDNx236_1xUdE-39">
          <mxGeometry y="300" width="180" height="30" as="geometry" />
        </mxCell>
        <mxCell id="olG83n2oDNx236_1xUdE-116" value="" style="shape=partialRectangle;connectable=0;fillColor=none;top=0;left=0;bottom=0;right=0;editable=1;overflow=hidden;" vertex="1" parent="olG83n2oDNx236_1xUdE-115">
          <mxGeometry width="30" height="30" as="geometry">
            <mxRectangle width="30" height="30" as="alternateBounds" />
          </mxGeometry>
        </mxCell>
        <mxCell id="olG83n2oDNx236_1xUdE-117" value="special_features" style="shape=partialRectangle;connectable=0;fillColor=none;top=0;left=0;bottom=0;right=0;align=left;spacingLeft=6;overflow=hidden;" vertex="1" parent="olG83n2oDNx236_1xUdE-115">
          <mxGeometry x="30" width="150" height="30" as="geometry">
            <mxRectangle width="150" height="30" as="alternateBounds" />
          </mxGeometry>
        </mxCell>
        <mxCell id="olG83n2oDNx236_1xUdE-52" value="factsales" style="shape=table;startSize=30;container=1;collapsible=1;childLayout=tableLayout;fixedRows=1;rowLines=0;fontStyle=1;align=center;resizeLast=1;html=1;" vertex="1" parent="WIyWlLk6GJQsqaUBKTNV-1">
          <mxGeometry x="370" y="320" width="180" height="210" as="geometry" />
        </mxCell>
        <mxCell id="olG83n2oDNx236_1xUdE-53" value="" style="shape=tableRow;horizontal=0;startSize=0;swimlaneHead=0;swimlaneBody=0;fillColor=none;collapsible=0;dropTarget=0;points=[[0,0.5],[1,0.5]];portConstraint=eastwest;top=0;left=0;right=0;bottom=1;" vertex="1" parent="olG83n2oDNx236_1xUdE-52">
          <mxGeometry y="30" width="180" height="30" as="geometry" />
        </mxCell>
        <mxCell id="olG83n2oDNx236_1xUdE-54" value="PK" style="shape=partialRectangle;connectable=0;fillColor=none;top=0;left=0;bottom=0;right=0;fontStyle=1;overflow=hidden;whiteSpace=wrap;html=1;" vertex="1" parent="olG83n2oDNx236_1xUdE-53">
          <mxGeometry width="30" height="30" as="geometry">
            <mxRectangle width="30" height="30" as="alternateBounds" />
          </mxGeometry>
        </mxCell>
        <mxCell id="olG83n2oDNx236_1xUdE-55" value="sales_key" style="shape=partialRectangle;connectable=0;fillColor=none;top=0;left=0;bottom=0;right=0;align=left;spacingLeft=6;fontStyle=5;overflow=hidden;whiteSpace=wrap;html=1;" vertex="1" parent="olG83n2oDNx236_1xUdE-53">
          <mxGeometry x="30" width="150" height="30" as="geometry">
            <mxRectangle width="150" height="30" as="alternateBounds" />
          </mxGeometry>
        </mxCell>
        <mxCell id="olG83n2oDNx236_1xUdE-56" value="" style="shape=tableRow;horizontal=0;startSize=0;swimlaneHead=0;swimlaneBody=0;fillColor=none;collapsible=0;dropTarget=0;points=[[0,0.5],[1,0.5]];portConstraint=eastwest;top=0;left=0;right=0;bottom=0;" vertex="1" parent="olG83n2oDNx236_1xUdE-52">
          <mxGeometry y="60" width="180" height="30" as="geometry" />
        </mxCell>
        <mxCell id="olG83n2oDNx236_1xUdE-57" value="" style="shape=partialRectangle;connectable=0;fillColor=none;top=0;left=0;bottom=0;right=0;editable=1;overflow=hidden;whiteSpace=wrap;html=1;" vertex="1" parent="olG83n2oDNx236_1xUdE-56">
          <mxGeometry width="30" height="30" as="geometry">
            <mxRectangle width="30" height="30" as="alternateBounds" />
          </mxGeometry>
        </mxCell>
        <mxCell id="olG83n2oDNx236_1xUdE-58" value="date_key" style="shape=partialRectangle;connectable=0;fillColor=none;top=0;left=0;bottom=0;right=0;align=left;spacingLeft=6;overflow=hidden;whiteSpace=wrap;html=1;" vertex="1" parent="olG83n2oDNx236_1xUdE-56">
          <mxGeometry x="30" width="150" height="30" as="geometry">
            <mxRectangle width="150" height="30" as="alternateBounds" />
          </mxGeometry>
        </mxCell>
        <mxCell id="olG83n2oDNx236_1xUdE-59" value="" style="shape=tableRow;horizontal=0;startSize=0;swimlaneHead=0;swimlaneBody=0;fillColor=none;collapsible=0;dropTarget=0;points=[[0,0.5],[1,0.5]];portConstraint=eastwest;top=0;left=0;right=0;bottom=0;" vertex="1" parent="olG83n2oDNx236_1xUdE-52">
          <mxGeometry y="90" width="180" height="30" as="geometry" />
        </mxCell>
        <mxCell id="olG83n2oDNx236_1xUdE-60" value="" style="shape=partialRectangle;connectable=0;fillColor=none;top=0;left=0;bottom=0;right=0;editable=1;overflow=hidden;whiteSpace=wrap;html=1;" vertex="1" parent="olG83n2oDNx236_1xUdE-59">
          <mxGeometry width="30" height="30" as="geometry">
            <mxRectangle width="30" height="30" as="alternateBounds" />
          </mxGeometry>
        </mxCell>
        <mxCell id="olG83n2oDNx236_1xUdE-61" value="customer_key" style="shape=partialRectangle;connectable=0;fillColor=none;top=0;left=0;bottom=0;right=0;align=left;spacingLeft=6;overflow=hidden;whiteSpace=wrap;html=1;" vertex="1" parent="olG83n2oDNx236_1xUdE-59">
          <mxGeometry x="30" width="150" height="30" as="geometry">
            <mxRectangle width="150" height="30" as="alternateBounds" />
          </mxGeometry>
        </mxCell>
        <mxCell id="olG83n2oDNx236_1xUdE-62" value="" style="shape=tableRow;horizontal=0;startSize=0;swimlaneHead=0;swimlaneBody=0;fillColor=none;collapsible=0;dropTarget=0;points=[[0,0.5],[1,0.5]];portConstraint=eastwest;top=0;left=0;right=0;bottom=0;" vertex="1" parent="olG83n2oDNx236_1xUdE-52">
          <mxGeometry y="120" width="180" height="30" as="geometry" />
        </mxCell>
        <mxCell id="olG83n2oDNx236_1xUdE-63" value="" style="shape=partialRectangle;connectable=0;fillColor=none;top=0;left=0;bottom=0;right=0;editable=1;overflow=hidden;whiteSpace=wrap;html=1;" vertex="1" parent="olG83n2oDNx236_1xUdE-62">
          <mxGeometry width="30" height="30" as="geometry">
            <mxRectangle width="30" height="30" as="alternateBounds" />
          </mxGeometry>
        </mxCell>
        <mxCell id="olG83n2oDNx236_1xUdE-64" value="movie_key" style="shape=partialRectangle;connectable=0;fillColor=none;top=0;left=0;bottom=0;right=0;align=left;spacingLeft=6;overflow=hidden;whiteSpace=wrap;html=1;" vertex="1" parent="olG83n2oDNx236_1xUdE-62">
          <mxGeometry x="30" width="150" height="30" as="geometry">
            <mxRectangle width="150" height="30" as="alternateBounds" />
          </mxGeometry>
        </mxCell>
        <mxCell id="olG83n2oDNx236_1xUdE-73" value="" style="shape=tableRow;horizontal=0;startSize=0;swimlaneHead=0;swimlaneBody=0;fillColor=none;collapsible=0;dropTarget=0;points=[[0,0.5],[1,0.5]];portConstraint=eastwest;top=0;left=0;right=0;bottom=0;" vertex="1" parent="olG83n2oDNx236_1xUdE-52">
          <mxGeometry y="150" width="180" height="30" as="geometry" />
        </mxCell>
        <mxCell id="olG83n2oDNx236_1xUdE-74" value="" style="shape=partialRectangle;connectable=0;fillColor=none;top=0;left=0;bottom=0;right=0;editable=1;overflow=hidden;" vertex="1" parent="olG83n2oDNx236_1xUdE-73">
          <mxGeometry width="30" height="30" as="geometry">
            <mxRectangle width="30" height="30" as="alternateBounds" />
          </mxGeometry>
        </mxCell>
        <mxCell id="olG83n2oDNx236_1xUdE-75" value="store_key" style="shape=partialRectangle;connectable=0;fillColor=none;top=0;left=0;bottom=0;right=0;align=left;spacingLeft=6;overflow=hidden;" vertex="1" parent="olG83n2oDNx236_1xUdE-73">
          <mxGeometry x="30" width="150" height="30" as="geometry">
            <mxRectangle width="150" height="30" as="alternateBounds" />
          </mxGeometry>
        </mxCell>
        <mxCell id="olG83n2oDNx236_1xUdE-76" value="" style="shape=tableRow;horizontal=0;startSize=0;swimlaneHead=0;swimlaneBody=0;fillColor=none;collapsible=0;dropTarget=0;points=[[0,0.5],[1,0.5]];portConstraint=eastwest;top=0;left=0;right=0;bottom=0;" vertex="1" parent="olG83n2oDNx236_1xUdE-52">
          <mxGeometry y="180" width="180" height="30" as="geometry" />
        </mxCell>
        <mxCell id="olG83n2oDNx236_1xUdE-77" value="" style="shape=partialRectangle;connectable=0;fillColor=none;top=0;left=0;bottom=0;right=0;editable=1;overflow=hidden;" vertex="1" parent="olG83n2oDNx236_1xUdE-76">
          <mxGeometry width="30" height="30" as="geometry">
            <mxRectangle width="30" height="30" as="alternateBounds" />
          </mxGeometry>
        </mxCell>
        <mxCell id="olG83n2oDNx236_1xUdE-78" value="sales_amount" style="shape=partialRectangle;connectable=0;fillColor=none;top=0;left=0;bottom=0;right=0;align=left;spacingLeft=6;overflow=hidden;" vertex="1" parent="olG83n2oDNx236_1xUdE-76">
          <mxGeometry x="30" width="150" height="30" as="geometry">
            <mxRectangle width="150" height="30" as="alternateBounds" />
          </mxGeometry>
        </mxCell>
        <mxCell id="olG83n2oDNx236_1xUdE-80" style="edgeStyle=orthogonalEdgeStyle;rounded=0;orthogonalLoop=1;jettySize=auto;html=1;entryX=1;entryY=0.5;entryDx=0;entryDy=0;fontSize=12;startSize=8;endSize=8;" edge="1" parent="WIyWlLk6GJQsqaUBKTNV-1" source="olG83n2oDNx236_1xUdE-56" target="olG83n2oDNx236_1xUdE-1">
          <mxGeometry relative="1" as="geometry" />
        </mxCell>
        <mxCell id="olG83n2oDNx236_1xUdE-81" style="edgeStyle=orthogonalEdgeStyle;rounded=0;orthogonalLoop=1;jettySize=auto;html=1;entryX=1;entryY=0.5;entryDx=0;entryDy=0;fontSize=12;startSize=8;endSize=8;" edge="1" parent="WIyWlLk6GJQsqaUBKTNV-1" source="olG83n2oDNx236_1xUdE-62" target="olG83n2oDNx236_1xUdE-40">
          <mxGeometry relative="1" as="geometry" />
        </mxCell>
        <mxCell id="olG83n2oDNx236_1xUdE-82" style="edgeStyle=orthogonalEdgeStyle;rounded=0;orthogonalLoop=1;jettySize=auto;html=1;entryX=0;entryY=0.5;entryDx=0;entryDy=0;fontSize=12;startSize=8;endSize=8;" edge="1" parent="WIyWlLk6GJQsqaUBKTNV-1" source="olG83n2oDNx236_1xUdE-59" target="olG83n2oDNx236_1xUdE-14">
          <mxGeometry relative="1" as="geometry" />
        </mxCell>
        <mxCell id="olG83n2oDNx236_1xUdE-83" style="edgeStyle=orthogonalEdgeStyle;rounded=0;orthogonalLoop=1;jettySize=auto;html=1;entryX=0;entryY=0.5;entryDx=0;entryDy=0;fontSize=12;startSize=8;endSize=8;" edge="1" parent="WIyWlLk6GJQsqaUBKTNV-1" source="olG83n2oDNx236_1xUdE-73" target="olG83n2oDNx236_1xUdE-27">
          <mxGeometry relative="1" as="geometry" />
        </mxCell>
        <mxCell id="olG83n2oDNx236_1xUdE-163" value="address" style="shape=partialRectangle;connectable=0;fillColor=none;top=0;left=0;bottom=0;right=0;align=left;spacingLeft=6;overflow=hidden;whiteSpace=wrap;html=1;" vertex="1" parent="WIyWlLk6GJQsqaUBKTNV-1">
          <mxGeometry x="710" y="380" width="150" height="30" as="geometry">
            <mxRectangle width="150" height="30" as="alternateBounds" />
          </mxGeometry>
        </mxCell>
        <mxCell id="olG83n2oDNx236_1xUdE-164" value="address2" style="shape=partialRectangle;connectable=0;fillColor=none;top=0;left=0;bottom=0;right=0;align=left;spacingLeft=6;overflow=hidden;whiteSpace=wrap;html=1;" vertex="1" parent="WIyWlLk6GJQsqaUBKTNV-1">
          <mxGeometry x="710" y="410" width="150" height="30" as="geometry">
            <mxRectangle width="150" height="30" as="alternateBounds" />
          </mxGeometry>
        </mxCell>
        <mxCell id="olG83n2oDNx236_1xUdE-165" value="district" style="shape=partialRectangle;connectable=0;fillColor=none;top=0;left=0;bottom=0;right=0;align=left;spacingLeft=6;overflow=hidden;" vertex="1" parent="WIyWlLk6GJQsqaUBKTNV-1">
          <mxGeometry x="710" y="440" width="150" height="30" as="geometry">
            <mxRectangle width="150" height="30" as="alternateBounds" />
          </mxGeometry>
        </mxCell>
        <mxCell id="olG83n2oDNx236_1xUdE-166" value="city" style="shape=partialRectangle;connectable=0;fillColor=none;top=0;left=0;bottom=0;right=0;align=left;spacingLeft=6;overflow=hidden;" vertex="1" parent="WIyWlLk6GJQsqaUBKTNV-1">
          <mxGeometry x="710" y="470" width="150" height="30" as="geometry">
            <mxRectangle width="150" height="30" as="alternateBounds" />
          </mxGeometry>
        </mxCell>
        <mxCell id="olG83n2oDNx236_1xUdE-167" value="country" style="shape=partialRectangle;connectable=0;fillColor=none;top=0;left=0;bottom=0;right=0;align=left;spacingLeft=6;overflow=hidden;" vertex="1" parent="WIyWlLk6GJQsqaUBKTNV-1">
          <mxGeometry x="710" y="500" width="150" height="30" as="geometry">
            <mxRectangle width="150" height="30" as="alternateBounds" />
          </mxGeometry>
        </mxCell>
        <mxCell id="olG83n2oDNx236_1xUdE-168" value="postal_code" style="shape=partialRectangle;connectable=0;fillColor=none;top=0;left=0;bottom=0;right=0;align=left;spacingLeft=6;overflow=hidden;" vertex="1" parent="WIyWlLk6GJQsqaUBKTNV-1">
          <mxGeometry x="710" y="530" width="150" height="30" as="geometry">
            <mxRectangle width="150" height="30" as="alternateBounds" />
          </mxGeometry>
        </mxCell>
        <mxCell id="olG83n2oDNx236_1xUdE-188" value="start_date" style="shape=partialRectangle;connectable=0;fillColor=none;top=0;left=0;bottom=0;right=0;align=left;spacingLeft=6;overflow=hidden;" vertex="1" parent="WIyWlLk6GJQsqaUBKTNV-1">
          <mxGeometry x="710" y="620" width="150" height="30" as="geometry">
            <mxRectangle width="150" height="30" as="alternateBounds" />
          </mxGeometry>
        </mxCell>
        <mxCell id="olG83n2oDNx236_1xUdE-189" value="end_date" style="shape=partialRectangle;connectable=0;fillColor=none;top=0;left=0;bottom=0;right=0;align=left;spacingLeft=6;overflow=hidden;" vertex="1" parent="WIyWlLk6GJQsqaUBKTNV-1">
          <mxGeometry x="710" y="650" width="150" height="30" as="geometry">
            <mxRectangle width="150" height="30" as="alternateBounds" />
          </mxGeometry>
        </mxCell>
      </root>
    </mxGraphModel>
  </diagram>
  <diagram id="bPho0tehnyUlaMNiOSJO" name="Page-2">
    <mxGraphModel dx="3240" dy="2493" grid="1" gridSize="10" guides="1" tooltips="1" connect="1" arrows="1" fold="1" page="1" pageScale="1" pageWidth="850" pageHeight="1100" math="0" shadow="0">
      <root>
        <mxCell id="0" />
        <mxCell id="1" parent="0" />
        <mxCell id="gL1Sc6WVlpKiAEt4anXM-10" style="edgeStyle=orthogonalEdgeStyle;rounded=0;orthogonalLoop=1;jettySize=auto;html=1;" edge="1" parent="1" source="gL1Sc6WVlpKiAEt4anXM-1" target="gL1Sc6WVlpKiAEt4anXM-5">
          <mxGeometry relative="1" as="geometry" />
        </mxCell>
        <mxCell id="gL1Sc6WVlpKiAEt4anXM-1" value="" style="sketch=0;outlineConnect=0;fontColor=#232F3E;gradientColor=none;fillColor=#C925D1;strokeColor=none;dashed=0;verticalLabelPosition=bottom;verticalAlign=top;align=center;html=1;fontSize=12;fontStyle=0;aspect=fixed;pointerEvents=1;shape=mxgraph.aws4.rds_postgresql_instance;" vertex="1" parent="1">
          <mxGeometry x="-805" y="320" width="78" height="78" as="geometry" />
        </mxCell>
        <mxCell id="gL1Sc6WVlpKiAEt4anXM-2" value="Data Source" style="text;html=1;align=center;verticalAlign=middle;resizable=0;points=[];autosize=1;strokeColor=none;fillColor=none;" vertex="1" parent="1">
          <mxGeometry x="-820" y="408" width="90" height="30" as="geometry" />
        </mxCell>
        <mxCell id="gL1Sc6WVlpKiAEt4anXM-14" style="edgeStyle=orthogonalEdgeStyle;rounded=0;orthogonalLoop=1;jettySize=auto;html=1;" edge="1" parent="1" source="gL1Sc6WVlpKiAEt4anXM-5" target="gL1Sc6WVlpKiAEt4anXM-7">
          <mxGeometry relative="1" as="geometry" />
        </mxCell>
        <mxCell id="gL1Sc6WVlpKiAEt4anXM-5" value="" style="sketch=0;outlineConnect=0;fontColor=#232F3E;gradientColor=none;fillColor=#7AA116;strokeColor=none;dashed=0;verticalLabelPosition=bottom;verticalAlign=top;align=center;html=1;fontSize=12;fontStyle=0;aspect=fixed;pointerEvents=1;shape=mxgraph.aws4.bucket;" vertex="1" parent="1">
          <mxGeometry x="-330" y="320" width="75" height="78" as="geometry" />
        </mxCell>
        <mxCell id="gL1Sc6WVlpKiAEt4anXM-6" value="Data Lake (File)" style="text;html=1;align=center;verticalAlign=middle;resizable=0;points=[];autosize=1;strokeColor=none;fillColor=none;" vertex="1" parent="1">
          <mxGeometry x="-347.5" y="408" width="110" height="30" as="geometry" />
        </mxCell>
        <mxCell id="gL1Sc6WVlpKiAEt4anXM-27" style="edgeStyle=orthogonalEdgeStyle;rounded=0;orthogonalLoop=1;jettySize=auto;html=1;entryX=0;entryY=0.5;entryDx=0;entryDy=0;" edge="1" parent="1" source="gL1Sc6WVlpKiAEt4anXM-7" target="gL1Sc6WVlpKiAEt4anXM-23">
          <mxGeometry relative="1" as="geometry" />
        </mxCell>
        <mxCell id="gL1Sc6WVlpKiAEt4anXM-7" value="" style="editableCssRules=.*;html=1;shape=image;verticalLabelPosition=bottom;labelBackgroundColor=#ffffff;verticalAlign=top;aspect=fixed;imageAspect=0;image=data:image/svg+xml,PHN2ZyB4bWxucz0iaHR0cDovL3d3dy53My5vcmcvMjAwMC9zdmciIHhtbG5zOnY9Imh0dHBzOi8vdmVjdGEuaW8vbmFubyIgd2lkdGg9IjIwLjAwMTA0NTIyNzA1MDc4IiBoZWlnaHQ9IjIwLjAwMTA0NTIyNzA1MDc4IiBmaWxsLXJ1bGU9ImV2ZW5vZGQiIHZpZXdCb3g9IjAgMCAyMC4wMDEwNDUyMjcwNTA3OCAyMC4wMDEwNDUyMjcwNTA3OCI+JiN4YTsJPHN0eWxlIHR5cGU9InRleHQvY3NzIj4mI3hhOwkuc3Qwe2ZpbGw6I2FlY2JmYTt9JiN4YTsJLnN0MXtmaWxsOiM2NjlkZjY7fSYjeGE7CS5zdDJ7ZmlsbDojNDI4NWY0O30mI3hhOwk8L3N0eWxlPiYjeGE7CTxwYXRoIGNsYXNzPSJzdDAiIGQ9Ik00LjczIDguODN2Mi42M2E0LjkxIDQuOTEgMCAwIDAgMS43MSAxLjc0VjguODN6Ii8+JiN4YTsJPHBhdGggY2xhc3M9InN0MSIgZD0iTTcuODkgNi40MXY3LjUzQTcuNjIgNy42MiAwIDAgMCA5IDE0YTggOCAwIDAgMCAxIDBWNi40MXoiLz4mI3hhOwk8cGF0aCBjbGFzcz0ic3QwIiBkPSJNMTEuNjQgOS44NnYzLjI5YTUgNSAwIDAgMCAxLjctMS44MlY5Ljg2eiIvPiYjeGE7CTxwYXRoIGNsYXNzPSJzdDIiIGQ9Ik0xNS43NCAxNC4zMmwtMS40MiAxLjQyYS40Mi40MiAwIDAgMCAwIC42bDMuNTQgMy41NGEuNDIuNDIgMCAwIDAgLjU5IDBsMS40My0xLjQzYS40Mi40MiAwIDAgMCAwLS41OWwtMy41NC0zLjU0YS40Mi40MiAwIDAgMC0uNiAwIi8+JiN4YTsJPHBhdGggY2xhc3M9InN0MSIgZD0iTTkgMGE5IDkgMCAxIDAgMCAxOEE5IDkgMCAxIDAgOSAwbTAgMTUuNjlhNi42OCA2LjY4IDAgMCAxIC4wMDctMTMuMzYgNi42OCA2LjY4IDAgMCAxIDQuNzI3IDExLjQwM0E2LjY4IDYuNjggMCAwIDEgOSAxNS42OSIvPiYjeGE7PC9zdmc+;" vertex="1" parent="1">
          <mxGeometry x="80" y="319" width="80" height="80" as="geometry" />
        </mxCell>
        <mxCell id="gL1Sc6WVlpKiAEt4anXM-8" value="Data Staging" style="text;html=1;align=center;verticalAlign=middle;resizable=0;points=[];autosize=1;strokeColor=none;fillColor=none;" vertex="1" parent="1">
          <mxGeometry x="75" y="408" width="90" height="30" as="geometry" />
        </mxCell>
        <mxCell id="gL1Sc6WVlpKiAEt4anXM-12" value="Data Extraction Jobs" style="text;html=1;align=center;verticalAlign=middle;resizable=0;points=[];autosize=1;strokeColor=none;fillColor=none;" vertex="1" parent="1">
          <mxGeometry x="-635" y="328" width="130" height="30" as="geometry" />
        </mxCell>
        <mxCell id="gL1Sc6WVlpKiAEt4anXM-15" value="Data Loader Jobs" style="text;html=1;align=center;verticalAlign=middle;resizable=0;points=[];autosize=1;strokeColor=none;fillColor=none;" vertex="1" parent="1">
          <mxGeometry x="-150" y="328" width="120" height="30" as="geometry" />
        </mxCell>
        <mxCell id="gL1Sc6WVlpKiAEt4anXM-16" value="" style="shape=image;verticalLabelPosition=bottom;labelBackgroundColor=default;verticalAlign=top;aspect=fixed;imageAspect=0;image=data:image/png,iVBORw0KGgoAAAANSUhEUgAAAWkAAACLCAMAAACUXphBAAABv1BMVEX///8Ax9QArUbkOSEBfO5RUE8R4e4E1ln/dVcMtv9OTUxKSUhIR0ZFREP4+PhCQUCIiIdhYF+rq6qSkpHf3t5sa2p0c3O/v7+zs7MAcu319fVWVVQAytgAu/8AeO7Y2Njn5+cAs/8AqTrjJQD/clJcW1oAqDTNzc0AdvUE2k7jMRSYmJc8OzmioaGxsbD/b00InfeBgH/sLgAGlPUL1uMBu0zm8v31wLv41NDnVEH74+DlPyjsfXH+9vVX1d/pY1N12+Pvk4m87fHyqaHvUzmU4uman5mq6e72d1lsrq+cxfcP2tkExHwDzVVeovJ06/S51vlgxYJGvW/O4/vo9+7F6dFPmvLpZ1nsgXXyrab2xsH52dX5pJbui4D/nIjb9vj/j3iecox7h6+JgKSxY3LWQjI7peHQRz2xlYqjbIF7qai9V1zIi3rvel5Jw/8+u8Jkk8PXhXB51P8EifIKqft9x/u4k4aUUlWNQDajPzSNo584cY5kTUkUcNRNQjUHmqQvho0HjslNNzUBi9gDwYQWmkYDuZEEzWsDrqYN08YCmsQDo7Z6sfQLzLF/0Jx25ZmU6rGv78Xb+Oa45MiT1qpBpVQ/AAAS/ElEQVR4nO2djX/TxhnHFQeF5PTmdyc2sUUSxyGxk7phAQKU0tKVdbAVFlpg67q+rHvtuhW6963r2vVtHesCf/DuTdbd6c4+yXZsKn6f9uPIki3pq0e/e+65kzGMJzoq3T137tylS6++euHC7dcuX/7RnTNn7p7d37948WiPwn3mhaPd4QR0YXWT1SrR5uz5c6/evnznzNn9IzmKEzMz7pHsaILa39yclSvgPnvptefv7o8ThAtBf/NJ90EdIkdRfu72nbNj8hQEOgWkjf3ZQah7vDfPvXZm9LSfQaBnRv61U6j981qoA9xXLo82tgnoVJA2LuqjxrhXNy/cHRlsCjodpI2LV2KhxrBv/3Akuw5Ap4S0cfFcTNQI9pU7w++4B/rE8N/1eCgB6tnZ1dnnh8wYeqDTQzoZ6tnVzaHiOgSdItKGcSkJ6tnVK2cT75EBnSrSCVHPrt5OmIewoGeeGe25TLkurSZCvXk+URry7Ex6SRuvJkM9u3om/r540GkjbVxIivr5uHsSQKeOdHLUl+PtRwQ98+xYTmeadTSoI6BTSNq4nRT1j/T3EQU9880fc4nqtbGjloBOJWnjckLUsz/W+/4XJKBnXhzvOU2pkqLe0UItBT3z3LhPajqVEPUVHdRy0GklbTyfDPX8YNQK0DOvH8VpTaOSod6Z3/lJ/+9VgU4v6WSor8wPQP2iCnQahsZVupMA9fn5/qjVoNVF00o2W0ly/C1gFpN8bgI6kwD1GkatqqKqQatJVx3L8qoJDn/b8RJdoUkoAeodSHp+7V056j6g1QWmRcc0ncUER79oO48N6QSor8xj1FdlqJ/rA1pNugRME+QSHPxjRdq4Gxc1IS2N6r6glZ3xomcVCpbHOq5bbPjhUpVbMvxGkVoNIe0r1k6dzsZETUlLoro/aGVnfMvyGg3P2iJLix7wC7bneU0arsWyA5cAXW1sm3DJKbXwtrbT2gZw2Qy8p5VDa8tT2k7GRB2Qnl+b51EPAK3sIgLQNIwmMEkS2LFBzYZsLdDG+Fpty7FMx3LKeHXZA3ClDdodA5E2mw7ZtkM+3LY8EzhWuzUeVMMqHuoeaSGqB4FWdVwqjp03jLztETp52wTNSrFRcEzHhz5iAqviun4Z4DQj74FaxffzjtluYNJ42y3HxObTaINcw3UrNrCm1EF+GGfEPCTNRfVA0KqOSxkgor4DungRkcaYtiwbBqrvkUSu6lloPQAOXrntWFlCGi92bKtgoKbVxovw4nXGhGpY7cdAzZCGqIPnCQaDVszKg4ixL8Cg9dFr3kYhTlaU4ItLL5CFlmDjmSWLTYBJW4Ro1UG5S9UJ1yZJZY5Eg+eyS0nPr60R1K8PBq3ouORppkZMhLERZN341W0tbnVzAJFuOfY289kwyzNBDZoHbFaLDagiDO6p7frro+ZIU9QaoFWjiAFPCKuJXiBpmjmUgAVxVbMoEYHpBSJdcbgEOiRdQ6RbjmnhbT0AEvU5j0ZoLvvm008P5s2Thj3zfS3QinS64Zm1XBMqVzM92MiJpH1gO7VsvlIEGqQ9s5mjKo0V1nC6OLv5xptvvb05CPaOQHp+rXFCh7Q8yctapkVlYpcN3QPTK1s2yZVt6h7ExA0f9U8E0tA9prUh5OW/swy18OZPn+5Lek0kPb/zng5paZIHm7JalqqGc7O8TfswuKmsBilJw0OkfY8uuu12OUK6StpQ9LX+1No01N7yAtbywlt9wzoCen7t2zpBLd3pIpOPdTA3mOXZ2D66lrMdwith94BEHWQxxpZtb0VIw4+QlLDVbnfHB2pY7S2fXKBafudnq0rQ5yWkf65BWp56lGhuh+TjsEX5tLVVWSxZAOXKZcvqthqVnI1bRKPSNq1Oq9K18edE0sU2sPPFBuxmTmsnEcoNQSO9rXQQsUHUjelnZXsttu1yuFSy2kVIGpQ8x3EA6VJXaw7OJ3KmhVPkrbZlOw78H63c9oL6NLAAeql4Fuqr216SGuzRSAC9sPyGCnWkQYQ+/R0N0tL6UrFUYoKvVSoVce5RgflwLUtSELfTtK1cxyiUiM20ujXbam756O8G+gBWtlTAr34WrS34Y8I0vETQEPVbCtTRBnH+6mDO+sO1JMtz2RbNFZo3cTnO2gkrChqiflOOeqQNokRhPv1NlAS0KqolNq0V0tpzp7/RpH8jAw1R/0KCOmrTO7/UCWnt2Y8dr90Y58lOUgrQEPWvonl11Dt+rdVD1J5V0+hmp7dkMZyUoKF+KqKOZtPv6nBOzYPM/dQP9PI7on9EbHrtPa2QTt0jLlH1Ay1JQMQcb0cPdEqnTrPqDxqifpvzD9E8tPosSOmd/Eg1CDRUP/PQBp1689AAvfzbp5XmoenRT8xDBzTvH5x5rL2rDXpS5lHFo4oNkjWivybUUX+fgl7GAwBKvbMq7bbs/G5GG/REzKOVbdp0VBGhLrc9rz2ZMS8Iennh5P2ndnfvQe3uPnX/JBoGiAZ12CtnQevUpAON4AGXDh4d1J/v2Mh5FjCJ8Pikg/+aRFC/v7Bwf/dYvV4/RoX+vAd5R2gv/2xTbA/Xruq2hUhav+tR7RSQtuVr/TZA8nTPruIFmAPSNvrLmQDp909CzMeiQrifus/B7jWKvfZw59f6zjGjWfMoOXjYti0fc/U9zEx3FkexbTJqT5L0+7syzCHt3fssalL/uJIooGf0euJFj2IBUhgxSedIRDu2WYMveFhnQqQ/qPcBTWizsEmnnLSHazu/jxXQmiG9ZVHS8rnn8Ui38NbArDC1qsmQ/mBpAGcK+6mTy2FQn6cph35uR6Vzdq4Z+Cooy9YHPq1HKosvm+Wz702E9FdaoLGN3LtPg3pzE4X0zru/PBEXtFZIVwLzgO2XL9ugUypDaeYeTXTZgjk4VJMg/ZIuaBrYMBlZ/sMf/wQ5X/1zTOOY0f1BsTIg9zsiNPQ8pCrO6NBcYUYTIP1yHNCY9e7CXxzb/uvVb8fnrJlLExu28ggHmQg5jKip81SPnvQPYoJGrP/2d5h/eR8m4Kz5OzUEcdnAUe0NOysG5zHiDOojJ+3eiw362DFM2vlHAtKaP0aIjRVmHTgDCaabJ9Z0kP7eoPROEtIbH9m2Zf9Ta56jIL3SUoOYh0uzanvIgcSpIB3fOyDna6cytuN8ODd3Oi5ozYIHzsrwFNMSDu4h53rFI+0WW4vb25WWP9xORcX2jo2PPzl1/PjxzL8yc0inYzmIZlm6avWqE+jBZunztn65VCp1q/wysZlGPosW0EOI2RIWyc1LnICUdHWxbHsObO8dzzO7fAPRQB/Lix/Iyt4MDyZQrAQPcb73KeJ8/Homs/LJXFzWuvV/Bm8V24dkbk3BQR2X8BSzaLkN8+tK07Mt1Kuxu0aL9G9oJwhwMmWk85bDVKKs3tOmzC6EySdbnuzNyJZuPM71+uenMOjj38pA1N+dm4sFW3ughbWM0EgE0hbfGcHbwTa02yvagS560KW/eNJ+U9weeN1wCxwA4lMGODsSj4806Gzr8lKs5nDjo88IZxTSYVBrwj6hPWuJNIP0QHHJApgRP5WStivdkFVs0kU7CH4Ltvj0b7vU28SX2D05VjxZO5SP70muihAvoD+lnElIZzLr352b04V94rT+j+Ph1A4Ek/hJfERSailpULJCm3C6RrHtINkUK6cI6Sp1FNsrbeU7hZxHalxWOC6DK4J8V7NDNuLtbRvtkGvG47j0xkfXe6CPY9CZlWtzgk4raJ84PRfjVwjxCfe6Kx07EiBK0uRWdpq4JoJaxEYFKY/XNSucIi0iaSOBtU3f8wv0avSsoRMhGJRj+YpBOXJFYiQeG5+HnGlIw6D+QkSNafO4T5w+Dd+NAbqC7z0zWPRlRQsVafhBuyNuqpflbeP9gBzz6Rb5zl7ThtN8wD4xE1TRuS+v2uI7+rl0/dg1BjQNaSQJaYY4Zoz1/X5oBeGIYIKkLCnEKUmDmm9EpEWa3BM1rpNE69q9G6qG7xnmPshTY+IKjjhUuCjX7h4ufXydBX29B3rl0z6oGcUBTWKYOXIS4zVhMwVpvgZNpUN6kexWTNdszoXxTtkyDHYcMRLwobDOrZ3ibXzJcg7Ng8v0RgWaFpeY6QGulIGcNPcUeU86pPGdE2kOsBGE8Ylj3Cr0VpNspAv4AyZ+z3yLbrV04988aMY8MplIozgs6F5xKVRBVmaSk5b/jIcGaYI0OpJWsLjrzjchOMmAzu5xN2FDuBza5rHxoQD6Okt6/T8jBk2KS9z4IK038RAVWZ70OzVIN9gcnhHJyHv77gLOGJB5wIBHwRHeTThDYS1G0zwioFnz0PGPeKBpn5AP4FwkzBWkuUgKpUGaNAbRMQfaahTZzXp7xaUCuA6xDS9yTmw29cwjYh28eQzIP+KDrspMeVu0bkNFOtprR9IgrcjaDRdwx4MPr3ckqBVFVwd/f5CHkg4imwp+pWMe9Y8ioK8LoLlO+bCgaXFJiK0qnwFgjZg03y9lVOO7qGW2ooEWcB0E2Udwz+Gw525AnW5L/Z7IWTSPAVYdFzRJmyLJczdaxhkHadngjtBAk442WcQBgMMdfTq4IbpiB3FPxzw2rkVCOmIeiq5iMtC0uOQLb9MeBPvWiEkXVDYvtBHYG+gVQdFL8nzcnpKRIWw3nNO9rGEeS1GTjphHv1YxNmjlTYx7JdzI7YRIk2Uygw1FL91jrWcfOCi4m1LLpq9rmAeWFHV80DTpz5VFNU3xCoyFtMQ9RNKdnmXgkSHaVmL76AZ/8ZOBNGx6KZLgKUlLUWvSZURnLoGI8Nucq0zIp2m/BO0Hp9qAeRd3AlB0c6WDPY2Qrn8WBS2xaRVqXbyMyszQkkTsTTnqLE9hW27Et8wgOUJ77PkNKn6grYqeeBgadbz6x5KQltk0kdgsauMN5XtywoFYWCMmLUvZkWiCyeT3hcAeHHYFehfdEnlb2FxnXKv+pb55ZCLJnjZeRh1bYR6BfzCnMGLSpNcdnavdiCRDpMlbxK+hTZDaUzCcwH6DRtGjLsk8+pDOrH8yJGjiiaBZkgmTZpKDEZP2FWPw0ZmBLi36ceZB/NlrVZkkkEqjQZS6hxo0TPYy/xkKNMmaFbPw8kKVc8SkaZE/8nlSxODQkW5UtQa4Y8X2sYVvDW7Q09XJ8TY+1em3cGFNWH/xQHrCg0TKcYqZpSTowiRg1KQLpOoq2EdL2CsS7m5bpJzqcluCHL0KzNY6A1v1e3v/HVheisT1euZaZn09CWpSXFLOli7zna9RkybPHAl9F7cGovZNGkkx1t3ehG++TqVRyKsf2zMMEbU69RCA31Dw6qNF+dBsIOotwepRk6YZpsOVXMpW9L2g1RONLhgyFgbPB6ceGHQEtS7pzHp81Dnp+FIokxvJHTlpOsztZMOZNHT2iDiEuR0M0zrsu60gReWfFtFIPfbIljxqbdLxo7rYrz1EIjWR4LRHTtrIE1SWVWj51WqxEsw7E0cwe2k/31C6lL+wn92BIb0XbPq1fFh85KjJY3FAvQF/KUZP2sjSuWWW4znwP+oRkn/1qEmnT/JrusQ+hIZGN6KRvpbMqdFCfVNNLSrS7VWgIiJD/rTHPAbSRsGLVAOA7J+Xoj0sYWSzQi4Un5O7gxrEPXZrBnUc0vFQt1TTd8VToY8gxh9HFNJH2RP6FeAAnnNOdkANkqcIVRKak/CuPmAYoL7Hf0eIOoZ7xERdbHueN+C3i9G/iePRlHcRbx+6eh4vy59PrKJ/aqctFOpK6FcnxCnw1XyNzr4GAJpISfG8YxftLBIVW5JD6J9O138gfvP/TiUiHQu1j37ZpP8mbvgzKPDSwL99ZqW4zKoq+W5X8Usqxe1sqVlr5sqFiurryM6iU0v86CH0HXCJgg5RxyQNUU/zz7cegfql0zLQPdRxSUPUB0d9clOlPkNbctA91HFJZ1YyqY5qdcdFBdowHp5KRBqiTnNUv6IivfSy+kMYdaw07wlqZXW6H2jDuHUqgVFjpRd1ItAEdSLSqUWtmGY6CLRhHCayjxSjlk9BGAwao05GeuVw/Kc1hZKS1gGNUCcM6nSilnXG9UAj1MlIZzJpRC0hvfSS7ocPEwZ1Zv3WOM9pOhUdRdQHbRgHMEN+glpPEdJxQA+BeiV1qMUCUzzQT6JaXwLpuKBhQn4zKeqH4zif6RVPeumrBF9xY/0Jag1xRdNEoA3j0UqysE4XapZ0QtDQrG8mC+tUoWZIJwYN9TBZw7j+aHRnMu0KBwKGAQ31KBHrFKHukR4SNLSQRKzTgzogPTRopIc312PDTg1qOrg1EtBQhw8ycWEnmmD9GIqQXvre6L7xFoIdh3ZKUL8yatBIB49urMSgnQ7Uu2MAjXX4vxsZXdwJ5rI/foKk6+MAjXVw69GDm5j3AOBpQH3vWP2VMe/i4PDhoxs3M+tQKysK6EkehnnM9MrSuEH3dHB46+GjBw9u3LyJ0K6sIPIUPsR/VEcxMbmaY4aj3u3BwcHh4a1bD5EeQaVxZPGJxqH/AyFY20ylDTbUAAAAAElFTkSuQmCC;" vertex="1" parent="1">
          <mxGeometry x="-511" y="-120" width="361" height="139" as="geometry" />
        </mxCell>
        <mxCell id="gL1Sc6WVlpKiAEt4anXM-17" value="orchestrator" style="text;html=1;align=center;verticalAlign=middle;resizable=0;points=[];autosize=1;strokeColor=none;fillColor=none;" vertex="1" parent="1">
          <mxGeometry x="-360" y="30" width="90" height="30" as="geometry" />
        </mxCell>
        <mxCell id="gL1Sc6WVlpKiAEt4anXM-18" style="edgeStyle=orthogonalEdgeStyle;rounded=0;orthogonalLoop=1;jettySize=auto;html=1;entryX=0.485;entryY=0.067;entryDx=0;entryDy=0;entryPerimeter=0;" edge="1" parent="1" source="gL1Sc6WVlpKiAEt4anXM-17" target="gL1Sc6WVlpKiAEt4anXM-12">
          <mxGeometry relative="1" as="geometry" />
        </mxCell>
        <mxCell id="gL1Sc6WVlpKiAEt4anXM-19" style="edgeStyle=orthogonalEdgeStyle;rounded=0;orthogonalLoop=1;jettySize=auto;html=1;entryX=0.492;entryY=-0.1;entryDx=0;entryDy=0;entryPerimeter=0;" edge="1" parent="1" source="gL1Sc6WVlpKiAEt4anXM-17" target="gL1Sc6WVlpKiAEt4anXM-15">
          <mxGeometry relative="1" as="geometry" />
        </mxCell>
        <mxCell id="gL1Sc6WVlpKiAEt4anXM-28" style="edgeStyle=orthogonalEdgeStyle;rounded=0;orthogonalLoop=1;jettySize=auto;html=1;entryX=0;entryY=0.5;entryDx=0;entryDy=0;" edge="1" parent="1" source="gL1Sc6WVlpKiAEt4anXM-23" target="gL1Sc6WVlpKiAEt4anXM-25">
          <mxGeometry relative="1" as="geometry" />
        </mxCell>
        <mxCell id="gL1Sc6WVlpKiAEt4anXM-23" value="" style="editableCssRules=.*;html=1;shape=image;verticalLabelPosition=bottom;labelBackgroundColor=#ffffff;verticalAlign=top;aspect=fixed;imageAspect=0;image=data:image/svg+xml,PHN2ZyB4bWxucz0iaHR0cDovL3d3dy53My5vcmcvMjAwMC9zdmciIHhtbG5zOnY9Imh0dHBzOi8vdmVjdGEuaW8vbmFubyIgd2lkdGg9IjIwLjAwMTA0NTIyNzA1MDc4IiBoZWlnaHQ9IjIwLjAwMTA0NTIyNzA1MDc4IiBmaWxsLXJ1bGU9ImV2ZW5vZGQiIHZpZXdCb3g9IjAgMCAyMC4wMDEwNDUyMjcwNTA3OCAyMC4wMDEwNDUyMjcwNTA3OCI+JiN4YTsJPHN0eWxlIHR5cGU9InRleHQvY3NzIj4mI3hhOwkuc3Qwe2ZpbGw6I2FlY2JmYTt9JiN4YTsJLnN0MXtmaWxsOiM2NjlkZjY7fSYjeGE7CS5zdDJ7ZmlsbDojNDI4NWY0O30mI3hhOwk8L3N0eWxlPiYjeGE7CTxwYXRoIGNsYXNzPSJzdDAiIGQ9Ik00LjczIDguODN2Mi42M2E0LjkxIDQuOTEgMCAwIDAgMS43MSAxLjc0VjguODN6Ii8+JiN4YTsJPHBhdGggY2xhc3M9InN0MSIgZD0iTTcuODkgNi40MXY3LjUzQTcuNjIgNy42MiAwIDAgMCA5IDE0YTggOCAwIDAgMCAxIDBWNi40MXoiLz4mI3hhOwk8cGF0aCBjbGFzcz0ic3QwIiBkPSJNMTEuNjQgOS44NnYzLjI5YTUgNSAwIDAgMCAxLjctMS44MlY5Ljg2eiIvPiYjeGE7CTxwYXRoIGNsYXNzPSJzdDIiIGQ9Ik0xNS43NCAxNC4zMmwtMS40MiAxLjQyYS40Mi40MiAwIDAgMCAwIC42bDMuNTQgMy41NGEuNDIuNDIgMCAwIDAgLjU5IDBsMS40My0xLjQzYS40Mi40MiAwIDAgMCAwLS41OWwtMy41NC0zLjU0YS40Mi40MiAwIDAgMC0uNiAwIi8+JiN4YTsJPHBhdGggY2xhc3M9InN0MSIgZD0iTTkgMGE5IDkgMCAxIDAgMCAxOEE5IDkgMCAxIDAgOSAwbTAgMTUuNjlhNi42OCA2LjY4IDAgMCAxIC4wMDctMTMuMzYgNi42OCA2LjY4IDAgMCAxIDQuNzI3IDExLjQwM0E2LjY4IDYuNjggMCAwIDEgOSAxNS42OSIvPiYjeGE7PC9zdmc+;" vertex="1" parent="1">
          <mxGeometry x="320" y="320" width="80" height="80" as="geometry" />
        </mxCell>
        <mxCell id="gL1Sc6WVlpKiAEt4anXM-24" value="Data Transform&amp;nbsp;" style="text;html=1;align=center;verticalAlign=middle;resizable=0;points=[];autosize=1;strokeColor=none;fillColor=none;" vertex="1" parent="1">
          <mxGeometry x="310" y="408" width="110" height="30" as="geometry" />
        </mxCell>
        <mxCell id="gL1Sc6WVlpKiAEt4anXM-31" style="edgeStyle=orthogonalEdgeStyle;rounded=0;orthogonalLoop=1;jettySize=auto;html=1;entryX=0;entryY=0.5;entryDx=0;entryDy=0;" edge="1" parent="1" source="gL1Sc6WVlpKiAEt4anXM-25" target="gL1Sc6WVlpKiAEt4anXM-29">
          <mxGeometry relative="1" as="geometry" />
        </mxCell>
        <mxCell id="gL1Sc6WVlpKiAEt4anXM-25" value="" style="editableCssRules=.*;html=1;shape=image;verticalLabelPosition=bottom;labelBackgroundColor=#ffffff;verticalAlign=top;aspect=fixed;imageAspect=0;image=data:image/svg+xml,PHN2ZyB4bWxucz0iaHR0cDovL3d3dy53My5vcmcvMjAwMC9zdmciIHhtbG5zOnY9Imh0dHBzOi8vdmVjdGEuaW8vbmFubyIgd2lkdGg9IjIwLjAwMTA0NTIyNzA1MDc4IiBoZWlnaHQ9IjIwLjAwMTA0NTIyNzA1MDc4IiBmaWxsLXJ1bGU9ImV2ZW5vZGQiIHZpZXdCb3g9IjAgMCAyMC4wMDEwNDUyMjcwNTA3OCAyMC4wMDEwNDUyMjcwNTA3OCI+JiN4YTsJPHN0eWxlIHR5cGU9InRleHQvY3NzIj4mI3hhOwkuc3Qwe2ZpbGw6I2FlY2JmYTt9JiN4YTsJLnN0MXtmaWxsOiM2NjlkZjY7fSYjeGE7CS5zdDJ7ZmlsbDojNDI4NWY0O30mI3hhOwk8L3N0eWxlPiYjeGE7CTxwYXRoIGNsYXNzPSJzdDAiIGQ9Ik00LjczIDguODN2Mi42M2E0LjkxIDQuOTEgMCAwIDAgMS43MSAxLjc0VjguODN6Ii8+JiN4YTsJPHBhdGggY2xhc3M9InN0MSIgZD0iTTcuODkgNi40MXY3LjUzQTcuNjIgNy42MiAwIDAgMCA5IDE0YTggOCAwIDAgMCAxIDBWNi40MXoiLz4mI3hhOwk8cGF0aCBjbGFzcz0ic3QwIiBkPSJNMTEuNjQgOS44NnYzLjI5YTUgNSAwIDAgMCAxLjctMS44MlY5Ljg2eiIvPiYjeGE7CTxwYXRoIGNsYXNzPSJzdDIiIGQ9Ik0xNS43NCAxNC4zMmwtMS40MiAxLjQyYS40Mi40MiAwIDAgMCAwIC42bDMuNTQgMy41NGEuNDIuNDIgMCAwIDAgLjU5IDBsMS40My0xLjQzYS40Mi40MiAwIDAgMCAwLS41OWwtMy41NC0zLjU0YS40Mi40MiAwIDAgMC0uNiAwIi8+JiN4YTsJPHBhdGggY2xhc3M9InN0MSIgZD0iTTkgMGE5IDkgMCAxIDAgMCAxOEE5IDkgMCAxIDAgOSAwbTAgMTUuNjlhNi42OCA2LjY4IDAgMCAxIC4wMDctMTMuMzYgNi42OCA2LjY4IDAgMCAxIDQuNzI3IDExLjQwM0E2LjY4IDYuNjggMCAwIDEgOSAxNS42OSIvPiYjeGE7PC9zdmc+;" vertex="1" parent="1">
          <mxGeometry x="520" y="320" width="80" height="80" as="geometry" />
        </mxCell>
        <mxCell id="gL1Sc6WVlpKiAEt4anXM-26" value="Data Serving" style="text;html=1;align=center;verticalAlign=middle;resizable=0;points=[];autosize=1;strokeColor=none;fillColor=none;" vertex="1" parent="1">
          <mxGeometry x="530" y="408" width="90" height="30" as="geometry" />
        </mxCell>
        <mxCell id="gL1Sc6WVlpKiAEt4anXM-29" value="" style="shape=image;verticalLabelPosition=bottom;labelBackgroundColor=default;verticalAlign=top;aspect=fixed;imageAspect=0;image=data:image/png,iVBORw0KGgoAAAANSUhEUgAAATYAAACjCAMAAAA3vsLfAAAAsVBMVEX///8wTmjc7PkthdQsS2YoSWQYP13N09jV2d5vgJEOO1oGOFgbQV4iRWH6+/xJYni7wsoAetGdqLPx8/TCyM70+f3Q1drp8/vr9Pve7fkVftLZ5/aMmabk5+ra3uKttr99jJuxusJleIpAWnKCsOJTaX7K3fKHlaJccYSkrrjs7vBjn9wAMFOqyOuItONxp99DXXUzidV7rOFPldkAKU6VvOa70+5GkdijxOnP3/Nam9vbjDJAAAALsUlEQVR4nO2caVvbvBKG7WIrRJYdZ1/IHgJJ2hfoAl3+/w87kma0eAuF9hxerjP3pyBL8vixNJqR3AYBQRAEQRAEQRAEQRAEQRAEQRAEQRAEQRAEQRAEQRAEQRAEQRAEQRAEQRAEQRDE/4Js+NYWvEemHz58GL+1Ee8OpRrp9lKyD8Bb2/HOGKJs2Vsb8r6g0fY6xlq1yVub8e4Yk2qvg/waQRB/ymkAvM3dJ1fW+Q9tJurlpEPr5sZX1Ux1OdIsz9ygD1VG/T82tUjrE1N8exM3/KU7637Rv1SUOwVhxja30oXasOHH7mz2WG6+TbTtybbxBkuua7BPo79seYuFCv4Wsn2ZXVxczK4DG+QqI1zcNnSB7y9Vs/uj1L4dh2B841zZYw12+ZdNf0PZht0LRXdotFJieVmCK7yCmhelDoxs0a7hDgMevki2/uVyeflbSryhbFczrcVsarY91Nz0clJX+AQ1uyUjjWwhy+vv8BC9SLaFcljffssNvqfR9rnUgZUtCmtvkLPwRbKthFLi3y4b+ra7wIqlCs/4tn9K7a1soVjV9b+LXibbOn4XsgXXs5leEaRE0/Mr6X3dSupkqx1uGzvYflM2LfM7kC0Yumgscxa4CM0VTq6qFjrZQnGsdh5GL5OtrxeQ9yDbn+HJForK1aMIXyYbSPH/JVvaK19NwxfK1kvfiWzju493eNhyc3f3E0snY5NxPV3fXWHNx+vygmBli2qfoCfOyLYc5PlgUdtdjRLLfHU8bgpdFGTLRrK3U83zLQaqYV2GsmjleX5Z94YWdaYV+NmdXcy6Whjl8rtqTcX1U5ujMqquXghu5K/ZRTkrheeMIDpL54VrGUS68UNVtoFKyoRgnK9bpvYin2/xJXQ0O9Mi3yZciDQVjN06aTzZRrI72VuyKwWPgzbHhsm6KMPiNuWyiWrTKyrnTGu3giYubDT2pAOz7o38CVGHDIGDf3SQq2TN9K/Zfa1saQ7TkRfe91wXxm0dVPiytUJm53bM9/BAo28itUGghsMY6QnhPEGabMqyBVmbm1yFdTwNVhHzG/ouZJ1Y/xGl3Hvbo51vWqdhyE0x3JXT9B7yhWuXJcjrX6FQDrcbzCdqswQ2QonW3qU+PtbpEBVlu+VufdXW6Xz2koUlmJLtMhTFUm4eH2Vjy9BzoXFs3tyiI6JiQ2tctksLV0Ro5JmXTEvqU21Pto8gy5dCcoWy3VnZ6pMrkfcFauQu3eJgCzpF2bZGBzmg8IHUbBjVynZMonJxkhdkC+Pik2JyPOBxuSEzEdLBjWo0AEP1dsW0Bt3cJP0Bs/Ap8Cfp48zM3AkI/KvU3siGa6AUyQAhWMgWJdluwbSYhfs9zogolVPrJLNRMwiE3WrCVSVK5d9m9KRZQTZVIi/atjAaTaCtHKJpiC8158aCh51Q1+IDjjVoE0nTDmayirp1xl8SvkuJZloWGG7K+2efVeFHVfhD6jabXTXJluFws95grZ8jXQdF2VoJPM1e/7k82FpyZWut4NnFoKUYKD+lF2kRzluXl5sdPsmxKFuczlvLVi82O1Tg3vRdRTofyIYd6De9dVekVsrU/qbD0gSkuUTTOtq0BZrmBoKPF4A8fv2K22nD6XQMrzR7/P4Lw46bj9+/VL4LsbJhaBub/coF2MBOJdkgSbXVAlg8cRws0R16fn3wKWWxWQagp+ihIFt6gOp9zH9R1WUil8Nj4S5hquvhVpa5w6iH8+AB5Sw+Gz8bibwSJ1sAlvFL/4IOSXzZBvCssXWRsHDgo15WZQuWvY37bVYZ9QfK5t7AAvSI9vjnceXuAi+RL+1N4soowv6EvTlMoGoQ/xfwZFsJ72UtubPBlw1eu2+K7gFb1clWAKehDqiqWQLG3qymOdgg1BuAtae6r+q9aERHTuYtlBjWHKzIFcD+clZlNQf1nmyYt+tlEeUB9+zJloGTYd7AB38W69/PyraP3O2qsuXgX1lNTgCxY6oGNQ7KeF+afTDFmXeatIHhVpe9Xc+6kBoE2dTsEckFdHYBHk3vJkHNO1n4VG7uywZbklFHPT+YBnf0ZMNZlg4cEPHBCHlWtoN3u6psKIjYVBuu3SjHVydX0nbuKWIa555pvt8tqVazTXltdyS9wntdWNbNlw3dvRpu+HjgsTzZBhgYCYefX5yVLesvFudHG2ZzZW+kGrY957A2sUoshFPOrDCeaXFlaiC1m+ITd9qChUMbGNdviqNscNwihxt4NrNx6cm2KoX8FlivmmTrD+aHneCM4VrZJBv07rmnrNXb7lLOMQgD2frMBcgxS+dwt7zRtOohcO0RzE9MCCa/fQSDsqHr4QvMQjcV2Y6Ntp2ZpPmBs9TPBRplS4uyDbZcFBriOBwVUo9U6Exg02RaUp2k1dE2tgNr5k6unjvwM7K19CiLtxBembXKkw1ti3hS5BNEEXWy5aGXyT8jm/DFaXlZeVG2YPFQuKQzKDPaKqYdgirueHnojpd/lQtVze8zTOrPyIY+DX2CKaz4tsZD1RrZ2phcRypLem6SolfXGeYtDqkoVi39SaoYHBLvbSR9213UYFpZt8LHDDqjCoZfZSFsEU1c4Xdbs1m2Jbem6BW1LBteb9qRrcqGyXXMH9arwfJ0fkkwi6EaPLcYDPPd+igbtivx4ml14DbL7dnGv7ez3PDpzNXTtK6w+s19STZvk5zZTT4/bgMVRMMGYEU2zLqZ2WQ8H4DkLi/G/FJs0Z+vK7IFKiHFPScV0mYmH24S6m9Slm1hhlvsgms/S4DholP3GiqyYXV7JnZetjW+M2sX5u5Bg2y2nl7z0cHUp+5/mbJsNijibjPXlw0jEFa7HVORrZx1n5etD7fWe6Xl/LJJNhj+WjZcrmrCtBomj/ePOEuHk4mZkJOx+TUcT9Cu4Y+7SpJQle1UTrCLsuF2pjcWg/58bw70UTZr+cLlHcBD1bex0laVDrcz3AOyDQ8NssHhmk6J0YFEHTd8PdOKXM3sftvYfMHgH8G4wp8zyeeyL6/IhtuQiffOChtHcxwS5nylP+ep3XvGKa4Dr1z2cPJzNFkXP/oqyBbG6CjNJqNeppOipFuM6CDc7SRbcwE6gXLcEnWm9WS4mHiP5nC7u0ObEHi7uxNXeHHmCMaXLdsnjCX+SyrIluF2c8Q789Wqd+Cp93yZyb3265BH9u+4rSZbf2VChqJsId8f87xnzgfgZCLEvTPlDLLcnDaAPFLDOFkv9RW4Ab7ksGDaFo5p6vbbvLMEF+56RzAu3DVHMM/Kpk5AWwXXVdwUXyb4tDISs2dVKc5Ds8sfydhezO32Ysx2+5ALExGWZIOeTCwBLv0WBzXf7XdqUxxelpYNUsCYsTBiwm/TYFpNkGlke/77tmeOYKpdN8kWtKqnKukOdR5wr1S+55F9EP3cYluVrXgKFe/AwEWxYbrXXlHLlsZhkTjMzpgW1q1eFzZl8uZj3SSdgGxfS+1fIVuwLJ3hxbxtX0bbuyTkurH2zrMiPocV0ZctXfU8qYX1535pxNtwRKRlG4XFk0Cxc8KUTYs803xu9BGM/oZharRCsfRaagWEI5hu5QhGxBJ+VraHVNVJvFP5Xipim/rwg7+t2E7wZD7l2qPJFQNqyonaUp+H29u1uOr2UytYMagSpczbmu25hlGuhp+szGAlPYbMJPixEMVPCXop80zbNx3MT69/XWNGMJ5OTSgynZoIxBU+/fp8Py03n2/bkm3zsb9kDXX8/Zcsb+tTvTTcHksut7VNGWdpp4fli9tQcC7iNryajb3dUnW7VUL0ezvZmWxSmE+nuSyVPW1hI2agapsNzNbtg7qLiLabcjKV5Wt1gKhNO/fvBt6K7HTq1+emp9OpcKEvaz7TWb/U5PmG8vaNF5tNI4h/CROzIhAvgP718mugfyv/Kuh/ZngVNNpeB/2vM69j+sF+wkC8gOGQ4g+CIAiCIAiCIAiCIAiCIAiCIAiCIAiCIAiCIAiCIAiCIAiCIAiCIAiCIAiCIIj/Gv8B+cTUhbRwTJkAAAAASUVORK5CYII=;" vertex="1" parent="1">
          <mxGeometry x="950" y="278.5" width="310" height="163" as="geometry" />
        </mxCell>
        <mxCell id="gL1Sc6WVlpKiAEt4anXM-32" value="Dashboard" style="text;html=1;align=center;verticalAlign=middle;resizable=0;points=[];autosize=1;strokeColor=none;fillColor=none;" vertex="1" parent="1">
          <mxGeometry x="1030" y="458" width="80" height="30" as="geometry" />
        </mxCell>
      </root>
    </mxGraphModel>
  </diagram>
</mxfile>
